<svg xmlns="http://www.w3.org/2000/svg" viewBox="0 0 239.99 148.1"><defs><style>.cls-1{fill:#1ea9ad;}</style></defs><g id="Camada_2" data-name="Camada 2"><g id="Camada_1-2" data-name="Camada 1"><path class="cls-1" d="M237.3,67.93C219.5,46.23,198.87,27.86,174,14.62,146.58,0,117.9-4.72,87.91,5.34a155.3,155.3,0,0,0-17.5,7.09l5.47,5.47,6.7,6.7a128.65,128.65,0,0,1,13.82-5,86.53,86.53,0,0,1,24.25-3.51c16.66.32,32.59,5.48,47.64,13.78,19.44,10.73,36,25,50.76,41.43,1.32,1.47,2.79,2.62.7,4.9-14,15.23-29,29-46.35,39.24l9,9,2.72,2.72C205.31,114.68,222.5,98.1,238,79.23,241.16,75.4,240.29,71.57,237.3,67.93Zm-72,52c-2.55,1.29-5.16,2.52-7.82,3.65a126.12,126.12,0,0,1-12,4.49c-24.77,7.89-48.23,3.58-70.72-8.1C54,109.15,36.51,94.16,20.92,76.86c-1.33-1.47-2.79-2.61-.7-4.89,14-15.24,29-29,46.41-39.28q3.63-2.14,7.39-4.08l.73-.37c-1.78-1.77-3.55-3.55-5.32-5.32L62.81,16.3c-.24.12-.47.25-.71.39q-3.69,2-7.24,4.23c-20.14,12.47-37.31,29-52.77,47.8-3.31,4-2.4,7.89.72,11.71a219.37,219.37,0,0,0,48,44c20.94,14,43.51,23.32,69.14,23.61a94.17,94.17,0,0,0,29.48-4.43,156.26,156.26,0,0,0,20.18-8q3.87-1.85,7.59-3.88l.72-.39L166,119.51C165.78,119.64,165.54,119.77,165.29,119.89Z"/><path class="cls-1" d="M120.35,38.79a35.59,35.59,0,0,0-18.61,5q4.19,4.17,8.35,8.35l3.71,3.71a19.71,19.71,0,0,1,6.25-1,18.86,18.86,0,0,1,19.14,19.29,19.94,19.94,0,0,1-1,6.11l11.52,11.52.54.54a35.48,35.48,0,0,0,5-18.24A35.07,35.07,0,0,0,120.35,38.79ZM134,87.45a7.14,7.14,0,0,1-.55.55,18.71,18.71,0,0,1-7.16,4.3,20.19,20.19,0,0,1-6.34,1A18.86,18.86,0,0,1,100.76,74a19.93,19.93,0,0,1,1-6.2,18.55,18.55,0,0,1,4.3-7.17c.17-.19.36-.37.55-.55L95.26,48.75c-.19.19-.38.37-.55.56a34.12,34.12,0,0,0-5,6.46,35.4,35.4,0,0,0,55.05,43.59l.55-.56-2-2Z"/><path class="cls-1" d="M189.53,143a3.81,3.81,0,0,1-2.13-1,2.5,2.5,0,0,0-.23-.23c-1.8-1.76-3.56-3.57-5.35-5.35l-11.25-11.25-5.28-5.28q-5.21-5.22-10.42-10.42L144.76,99.36l-8.4-8.4-3-3-17-17L106.05,60.64,96.7,51.3l-2-2-16-16L74,28.61l-10-10L62.1,16.69C59.4,14,56.72,11.31,54,8.62L50.49,5.09a3.7,3.7,0,0,1,2.11,1l.23.23c1.8,1.76,3.56,3.57,5.35,5.35l4.63,4.63,6.62,6.62c1.77,1.77,3.54,3.55,5.32,5.32L106.6,60.09l17,17q5.19,5.19,10.39,10.39l9.35,9.34,2,2,15.94,16,4.77,4.76,11.9,11.9,8.05,8.06Z"/><path class="cls-1" d="M187.25,147.36c-1.83.88-4.74,1.21-6.3-.35l-.23-.22c-1.8-1.76-3.56-3.57-5.35-5.35l-5.76-5.76-5.49-5.49q-3.33-3.33-6.65-6.65-4.51-4.53-9.05-9.05l-10.13-10.14L129.91,96,66.63,32.69l-9.06-9-2.71-2.72-7.28-7.28L43.9,10c-1.62-1.63,1.19-3.64,2.4-4.22a7.4,7.4,0,0,1,4.19-.66,3.7,3.7,0,0,1,2.11,1l.23.23c1.8,1.76,3.56,3.57,5.35,5.35l4.63,4.63,6.62,6.62c1.77,1.77,3.54,3.55,5.32,5.32L106.6,60.09l17,17q5.19,5.19,10.39,10.39l9.35,9.34,2,2,15.94,16,4.77,4.76,11.9,11.9,8.05,8.06,3.56,3.55.12.12C191.27,144.76,188.46,146.77,187.25,147.36Z"/></g></g></svg>