<?xml version="1.0" encoding="utf-8"?>
<!-- Generator: Adobe Illustrator 25.2.0, SVG Export Plug-In . SVG Version: 6.00 Build 0)  -->
<svg version="1.1" id="Camada_1" xmlns="http://www.w3.org/2000/svg" xmlns:xlink="http://www.w3.org/1999/xlink" x="0px" y="0px"
	 viewBox="0 0 876.5 276.5" style="enable-background:new 0 0 876.5 276.5;" xml:space="preserve">
<style type="text/css">
	.st0{fill:#028489;}
	.st1{fill:#FFFFFF;}
</style>
<path class="st0" d="M300.3,110.2c-9-4.7-12.8-12.8-15.4-22c-7-24.9-20.4-47.6-38.7-65.8c-12.5-12.5-35-19.9-53-19.9
	C121.9,2.8,127,45.7,95.6,48c-14.2,1-28.4,1.1-42,7.3c-23.6,10.8-27.9,31-23.4,51.8c2.6,11.9,7.6,22.9,13.1,33.7
	c1.9,3.6-0.1,4-2.2,5.7c-8.4,6.8-16.8,13.7-23.7,22.3c-15.3,18.9-11.7,34.7,9.7,45.1c15.9,7.7,32.8,10.9,49.9,13.3
	c4.4,0.6,5.2,2.9,5.9,6.2c1.9,7.8,5.3,15.2,10,21.7c5.8,8.3,13.7,10.4,22.7,10.6c8.7,0.2,17.4,1.1,26-1.7c10.5-3.4,20,1.7,29.7,4.8
	c26.2,8.5,51.4,4.1,75.4-7.9c18.2-9.1,32.4-22.8,40.6-42.3c1.7-4.1,2.5-23.4,18.1-29.8c8.7-3.7,15.6-10.7,19.2-19.4
	C338.6,136.5,310.8,115.8,300.3,110.2z M133.7,51.5c4.8-14.7,17.4-26.3,29.4-31.6c15.5-6.9,31-3.3,44.9,5.2
	c21.2,13,32.8,34.1,43.9,58.2C211.9,65.3,133.7,51.5,133.7,51.5z M116,96c3.7-12,4.7-14.4,8.5-26.4c1-3.1,3-4.2,5.7-3.5
	c25.7,6,51.4,12,76.1,21.5c0.2,0.1,0.2,0.4,0.6,1.2c-31.1,3-61.6,4.9-90.9,14.9C111.9,105.1,114.9,99.4,116,96L116,96z M40.8,197.1
	c-24.7-11.9,12-44.8,12-44.8s20,27.7,26.1,54.5C78.9,206.8,51.8,202.5,40.8,197.1z M87.5,175.5c0,0-13.5-23.5-18.3-32.2
	c-0.5-1-0.3-2.2,0.6-2.8l12.8-8.8c1-0.6,2.3-0.4,2.9,0.6c0.3,0.4,0.4,0.9,0.3,1.4C85.3,140.9,87.5,175.5,87.5,175.5L87.5,175.5z
	 M93.3,94.7c-2.4,7.2-3.5,18.6-9.7,22.7c-1.7,1.1-11.1,9.2-12.6,10.1c-2.9,1.7-6.6,0.7-8.3-2.1c-6.5-10.5-19.2-35.6-5.2-53.6
	c5.1-6.5,12.7-10.6,21-11.3c11-0.9,29-1.4,25.8,5.5C100.1,75.4,96.4,85,93.3,94.7L93.3,94.7z M105.4,242.3
	c-3.4-5.3,0.4-8.4,2.3-11.4c2.1-3.4,4.8-0.1,6.8,1.7c8.1,7.1,15.8,14.6,26.3,20.9C125.4,257.4,113.8,255.4,105.4,242.3z
	 M164.5,234.5c-3.6-1.2-7.1-3.1-10.6-4.7c33-4.3,65.6-8.1,97.5-16.7c-11.1,4.8-22,9.7-33.2,14.3c-11.2,4.5-22.3,9.9-34,12.2
	C178.1,240.8,171,236.6,164.5,234.5z M188.6,253c25.6-10,50.6-19.8,74.7-34.8C253.2,257.9,226.3,269.8,188.6,253L188.6,253z
	 M269.5,193.9c-0.8,5.2-3.3,6.7-6.9,7.6c-9.6,2.5-19.3,5.2-29.1,6.8c-17.9,2.8-35.9,5.8-54,7c-12.1,1-24.4,0.8-36.5-0.4
	c-21.1-2.5-36.9-21.1-36.5-42.9c0.4-18.2,1-40,2.2-46.9c1-5.9,4-7.9,8.6-9.4c18.1-5.9,36.5-9.5,55.5-12.2c28.6-4,56-1.6,83,8.1
	c4.4,1.6,7,4.1,8.5,9.3c3,11,4.7,22.4,5.1,33.8C270.6,169.2,271.4,181.5,269.5,193.9L269.5,193.9z M290.8,177l-0.8-57.4
	c17.5,7.1,22.3,24.1,21.9,31.3C311.5,161.1,306.3,169.3,290.8,177L290.8,177z"/>
<path class="st0" d="M357.2,135.6h3.5c2.8,0,5,2.2,5,5v125.7c0,2.8-2.3,5-5,5l0,0h-3.5c-2.8,0-5-2.3-5-5l0,0V140.6
	C352.2,137.9,354.5,135.6,357.2,135.6z"/>
<path class="st0" d="M357.2,138.1c2.3,0,5.9-0.6,6.1,2.6c0,0.3,0,0.7,0,1V252c0,4.8,0.3,9.6,0,14.4c-0.2,3.1-3.7,2.7-6.1,2.6
	c-1.5,0-2.6-1.2-2.6-2.7v-0.1c0-1.9,0-3.8,0-5.7v-102c0-5.9,0-11.7,0-17.5c-0.1-1.5,1-2.7,2.4-2.8
	C357.2,138.1,357.2,138.1,357.2,138.1c3.2-0.1,3.2-5,0-4.9c-4.1,0.1-7.5,3.4-7.5,7.6c0,0.5,0,1.1,0,1.6v122.5c0,0.5,0,1,0,1.5
	c0,4.2,3.4,7.5,7.6,7.5c1.2,0,2.5,0.1,3.8,0c2.6-0.1,5-1.6,6.3-3.9c0.6-1.3,1-2.7,0.9-4.2V143.7c0-2.6,0.2-5.2-1.5-7.5
	c-1.4-1.9-3.7-3-6-3c-1.1,0-2.3,0-3.5,0C354.1,133.2,354.1,138.1,357.2,138.1z"/>
<path class="st0" d="M393.5,171h2.9c2.8,0,5,2.3,5,5l0,0c0,2.8,2.2,5,5,5c1.2,0,2.4-0.4,3.3-1.2c2.7-2.4,5.7-4.5,8.8-6.3
	c6.3-3.4,13.3-5.2,20.5-5.1c7.1-0.1,14,1.9,20,5.7c5.7,3.7,10.2,9.1,12.9,15.4c2.8,6.5,4.2,16.5,4.2,30.2v46.7c0,2.8-2.2,5-5,5h-2.9
	c-2.8,0-5-2.3-5-5l0,0v-42.9c0-11.6-0.5-19.3-1.4-23.2c-1.5-6.7-4.4-11.7-8.6-15c-4.2-3.4-9.8-5-16.6-5c-7.7,0-15.2,2.7-21,7.8
	c-6,4.9-10.3,11.7-12.2,19.2c-1.2,5-1.8,14.1-1.8,27.3v31.8c0,2.8-2.2,5-5,5h-2.9c-2.8,0-5-2.3-5-5V176
	C388.5,173.2,390.7,171,393.5,171L393.5,171z"/>
<path class="st0" d="M393.5,173.4c1.4,0,3.3-0.3,4.5,0.5c0.7,0.6,1.1,1.6,1,2.5c0.3,4.1,3.8,7.3,8,7c0.6,0,1.1-0.1,1.7-0.3
	c1.6-0.7,3-1.6,4.2-2.8c1.4-1.2,2.9-2.2,4.4-3.2c12-7.7,28.6-8.8,40.7-0.8c2.6,1.8,5,3.9,7,6.4c1,1.2,1.9,2.5,2.7,3.9
	c0.4,0.7,0.7,1.3,1.1,2c0.2,0.3,0.3,0.7,0.5,1l0.3,0.7l0.1,0.2c1.9,5.1,3,10.5,3.4,15.9c0.6,7,0.5,14,0.5,21v24.4
	c0,4.8,0.2,9.7,0,14.5c-0.1,2-1.6,2.6-3.3,2.6s-3.8,0.3-4.5-1.6c-0.5-1.3-0.2-3.3-0.2-4.7v-22.9c0-5.4,0-10.8,0-16.2
	c0.1-6.1-0.1-12.2-0.7-18.2c-0.6-5.5-2-11.1-4.9-15.9c-3.5-5.4-8.9-9.3-15.2-10.7c-7-1.6-14.3-1.1-21,1.5
	c-12.3,5.1-21.2,16.1-23.5,29.3c-1.5,9.2-1.4,18.7-1.4,27.9v23c0,2,0.1,4,0,6s-1.6,2.6-3.3,2.6s-3.8,0.3-4.5-1.6
	c-0.2-0.9-0.3-1.9-0.2-2.9v-87.6C390.9,175.1,391.5,173.5,393.5,173.4c3.2-0.1,3.2-5,0-4.9c-4.2,0.1-7.6,3.6-7.5,7.8v0.1
	c0,1.4,0,2.8,0,4.3v83.9c-0.1,1.5,0,2.9,0.5,4.3c1.1,3,4,4.9,7.2,4.9c2.4,0,4.8,0.1,6.9-1.3c2.1-1.5,3.3-3.8,3.3-6.3
	c0-0.8,0-1.7,0-2.6v-29.5c-0.1-6.8,0.2-13.6,0.8-20.4c0.1-1.3,0.2-1.8,0.4-3.1c0.2-1,0.3-2,0.6-2.9c0.8-3.2,2.1-6.3,3.8-9.1
	c3.6-5.8,8.8-10.5,15-13.4c6.3-2.8,13.4-3.3,20.1-1.5c5.8,1.6,10.5,5.8,12.9,11.3c1.1,2.5,1.9,5.1,2.3,7.9l0.1,0.8
	c0,0.1,0,0.2,0,0.3c0.1,0.6,0.1,1.2,0.2,1.8c0.1,1.4,0.2,2.8,0.3,4.2c0.4,7.3,0.3,14.6,0.3,21.9V265c0,0.4,0,0.8,0,1.3
	c0,3.5,2.5,6.5,5.9,7.3c2.1,0.4,4.3,0.4,6.4-0.1c3.2-0.9,5.5-3.9,5.5-7.2c0-1.5,0-2.9,0-4.4v-41.8c0-5.4-0.2-10.7-0.8-16.1
	c-0.7-5.8-1.7-11.5-4.2-16.9c-2.9-6.3-7.6-11.6-13.4-15.3c-6.4-4-13.8-6.1-21.3-5.9c-7.8,0-15.5,2-22.3,5.9c-1.7,1-3.3,2-4.8,3.2
	c-0.8,0.6-1.6,1.2-2.4,1.9c-0.6,0.6-1.2,1.1-1.9,1.5c-1.3,0.6-2.9,0-3.5-1.3c-0.1-0.2-0.2-0.5-0.2-0.8c-0.1-1.4-0.4-2.7-1-3.9
	c-0.7-1.3-1.9-2.4-3.2-3c-2-1-4-0.8-6.1-0.8C390.4,168.5,390.4,173.4,393.5,173.4z"/>
<path class="st0" d="M553.5,183.2l-1.4,1.4c-1.8,1.9-4.8,2-6.8,0.3c-5.7-4.7-11.3-7-16.8-7c-4-0.1-7.9,1.4-10.8,4.2
	c-2.8,2.4-4.5,6-4.5,9.7c0.1,3.5,1.4,6.8,3.7,9.3c2.5,3,7.6,6.5,15.5,10.6c9.6,5,16.2,9.8,19.6,14.4c3.4,4.6,5.2,10.1,5.1,15.8
	c0.1,7.9-3,15.5-8.7,21c-5.8,5.7-13,8.6-21.7,8.6c-5.7,0-11.4-1.3-16.6-3.8c-3.6-1.7-7-4.1-9.9-6.9c-1.9-1.9-2-4.9-0.3-6.9l1.6-1.8
	c1.8-2.1,5-2.3,7.1-0.5c0,0,0,0,0.1,0c5.5,5,11.4,7.6,17.5,7.6c4.9,0.1,9.6-1.7,13.2-5c3.4-2.9,5.4-7.2,5.5-11.7
	c0-3.6-1.3-7.1-3.6-9.9c-2.4-2.8-7.8-6.4-16.3-10.7c-9.1-4.7-15.2-9.3-18.5-13.9c-3.3-4.5-5-10-4.9-15.6c-0.2-7.2,2.7-14.1,7.9-19
	c5.2-5,11.8-7.6,19.7-7.6s15.9,3.3,23.9,10c2.1,1.8,2.4,5,0.6,7.1C553.7,183,553.6,183.1,553.5,183.2z"/>
<path class="st0" d="M551.8,181.4c-1.2,1.3-2.5,2.9-4.4,1.9c-0.7-0.4-1.4-1-2-1.5c-0.8-0.6-1.7-1.2-2.6-1.8c-1.6-1-3.2-1.8-4.9-2.5
	c-6.3-2.7-14-2.9-19.8,1.3s-8.9,11.6-6.1,18.7c2.4,5.9,7.4,9.6,12.7,12.8c6.4,3.9,13.3,6.9,19.3,11.4c4.8,3.6,8.4,7.8,10,13.7
	c1.7,6.4,1,13.2-2,19.1c-2.9,5.6-7.7,10-13.5,12.6c-6.3,2.7-13.7,2.8-20.3,1.1c-3.7-0.9-7.2-2.4-10.4-4.4c-1.5-0.9-2.9-1.9-4.2-3
	c-0.9-0.8-2.1-1.6-2.3-2.9c-0.1-0.9,0.2-1.7,0.9-2.3c0.5-0.7,1.1-1.4,1.8-2c0.8-0.6,1.8-0.7,2.7-0.2c0.7,0.4,1.3,0.9,1.8,1.5
	c0.8,0.7,1.7,1.3,2.6,2c5.8,4.2,13,5.9,20,4.7c6.9-1.4,12.7-6.2,15.3-12.8c2.3-6.5,0.7-13.7-4.2-18.6c-4.5-4.3-10.4-7.3-15.9-10.1
	c-5.9-3-12-6.5-16.4-11.5c-4.3-4.8-6.1-11.5-5.7-18c0.4-6.2,3.4-12.1,8.1-16.1c4.8-4.2,11.2-6,17.5-5.8c7,0.1,13.5,3.2,19.1,7.3
	C550.7,176.8,553.9,178.9,551.8,181.4c-2.2,2.4,1.3,5.8,3.4,3.4c2.6-2.7,2.8-6.9,0.5-9.8c-1.4-1.5-3-2.9-4.8-4
	c-1.7-1.2-3.4-2.3-5.3-3.3c-6.6-3.6-14.1-5.1-21.6-4.1c-7,0.9-13.4,4.3-18,9.6c-9.6,11.4-9.2,28.1,0.8,39.1
	c5.1,5.3,11.7,8.9,18.1,12.3c3.2,1.6,6.4,3.5,9.4,5.4c2,1.2,3.7,2.7,5.2,4.4c2.1,2.7,3.1,6.1,2.7,9.5c-0.4,3.1-1.9,6-4.2,8.1
	c-4.9,4.8-12.1,5.7-18.4,3.6c-3.4-1.3-6.5-3.3-9.2-5.7c-2.8-2.5-7.1-2.6-10-0.2c-1.7,1.4-3.6,3.7-4,5.9c-0.4,1.8-0.1,3.7,0.8,5.4
	c1,1.5,2.3,2.8,3.8,3.9c6.4,5.1,14.1,8.2,22.3,8.9c7.3,0.7,14.6-0.8,20.9-4.5c6.1-3.7,10.9-9.4,13.5-16c2.6-6.9,2.6-14.6,0.1-21.5
	c-2.4-6.4-6.9-11-12.3-14.9c-6.3-4.6-13.5-7.6-20-11.8c-4.8-3-10-7.2-9.8-13.6c0.2-6.7,6.9-11.1,13.2-11c3.3,0.1,6.6,1.1,9.5,2.7
	c1.8,1,3.5,2.1,5.1,3.4c1.4,1.2,3.2,1.9,5,2c2.9,0.1,4.8-1.7,6.7-3.6C557.4,182.6,554,179.1,551.8,181.4z"/>
<path class="st0" d="M594.3,133.7h2.9c2.8,0,5,2.3,5,5v27.2c0,2.8,2.3,5,5,5l0,0h10.4c2.8,0,5,2.3,5,5v1.1c0,2.8-2.2,5-5,5h-10.4
	c-2.8,0-5,2.2-5,5v79.2c0,2.8-2.2,5-5,5h-2.9c-2.8,0-5-2.3-5-5V187c0-2.8-2.3-5-5-5h-7.6c-2.8,0-5-2.3-5-5l0,0v-1c0-2.8,2.3-5,5-5
	h7.6c2.8,0,5-2.3,5-5l0,0v-27.2C589.3,135.9,591.5,133.7,594.3,133.7z"/>
<path class="st0" d="M594.3,136.1c1.2,0,2.7-0.3,3.8,0.2c1.1,0.4,1.7,1.5,1.6,2.7c0,2.2,0,4.3,0,6.5v19.1c0,0.5,0,1,0,1.4
	c0,2.8,1.6,5.4,4.1,6.7c1.5,0.6,3.1,0.9,4.7,0.8h5.2c2.2,0,6.2-0.7,6.6,2.2c0.2,1.5-0.1,3.2-1.6,3.9c-1,0.2-2,0.3-2.9,0.2
	c-2.8,0-5.6-0.1-8.4,0c-4.2,0.1-7.5,3.5-7.5,7.6c0,3.1,0,6.1,0,9.2V237c0,9.7,0.1,19.3,0,29c0,0.3,0,0.7-0.1,1c-0.4,1.6-1.8,2-3.3,2
	s-3.2,0.3-4.1-1.1c-0.3-0.5-0.5-1.1-0.4-1.7c0-3.1,0-6.2,0-9.3v-40.6c0-9.6,0.1-19.2,0-28.7c0.1-3.6-2.4-6.8-5.9-7.6
	c-1.4-0.2-2.7-0.3-4.1-0.2h-5c-1.4,0.2-2.7-0.8-2.9-2.3c-0.2-1.4,0-3,1.4-3.7c1-0.5,2.4-0.3,3.5-0.3h4.7c4.4,0,8-3,8.1-7.6
	c0-2.1,0-4.1,0-6.2v-19.3C591.7,138.4,591.8,136.2,594.3,136.1c3.1-0.1,3.1-5,0-4.9c-4.6,0.1-7.5,3.8-7.5,8.2v7.8
	c0,6.1,0,12.2,0,18.4c0.1,1-0.3,1.9-1.1,2.5c-0.9,0.6-2.2,0.4-3.3,0.4c-3.7,0-8-0.7-10.9,2.1c-3.9,3.7-2.8,11.1,2.1,13.3
	c1.6,0.6,3.2,0.8,4.9,0.7h5c1.4,0,2.6,0.2,3.1,1.6c0.1,0.4,0.2,0.9,0.2,1.3v76.6c0,0.7,0,1.5,0,2.2c0,2.6,1.4,5.1,3.7,6.4
	c2,1.1,4,1.1,6.1,1.1c4.2,0.2,7.8-3.1,8-7.3c0-0.1,0-0.2,0-0.3c0-1,0-1.9,0-2.8v-73.1c0-1,0-2,0-3c0-0.9,0.4-1.7,1.1-2.2
	c0.9-0.6,2.1-0.5,3.1-0.5c2.9,0,5.9,0.1,8.8,0c5.6-0.2,9-6,7.1-11.1c-1.1-2.8-3.7-4.7-6.7-4.9c-1.1-0.1-2.1,0-3.2,0h-5.4
	c-1,0.1-2.1,0.1-3.1-0.2c-2.1-0.8-1.6-3.2-1.6-5V143c0.1-2,0.1-3.9-0.2-5.9c-0.6-2.7-2.7-4.9-5.4-5.6c-1.6-0.3-3.2-0.4-4.8-0.3
	C591.1,131.2,591.1,136.1,594.3,136.1z"/>
<path class="st0" d="M728.8,237.7l2.2,1.2c2.5,1.3,3.4,4.3,2.1,6.8c0,0.1-0.1,0.1-0.1,0.2c-2.7,4.6-6,8.7-9.8,12.4
	c-4.6,4.2-10,7.6-15.8,9.8c-6.4,2.3-13.1,3.5-19.9,3.4c-16.4,0-29.2-5.4-38.4-16.1c-9.2-10.7-13.9-22.9-13.9-36.4
	c-0.1-12.4,4-24.4,11.8-34.1c9.9-12.7,23.2-19,39.8-19c17.1,0,30.8,6.5,41,19.5c6.3,7.9,9.9,17.5,10.8,28.9c0.2,2.8-1.8,5.2-4.6,5.4
	c-0.1,0-0.3,0-0.4,0H654c-2.8,0-5,2.2-5,5c0,0.2,0,0.4,0,0.6c0.9,8.7,4.7,16.8,10.8,23.1c6.9,7.3,16.6,11.4,26.7,11.2
	c5.1,0,10.2-0.9,14.9-2.7c4.5-1.6,8.7-4,12.3-7.1c3.3-3.1,6.2-6.6,8.6-10.4C723.7,237.2,726.5,236.5,728.8,237.7z M717.8,208.4
	c2.8,0,5-2.3,5-5c0-0.6-0.1-1.2-0.3-1.8c-1.3-3.5-3.1-6.7-5.4-9.6c-3.6-4.4-8.2-7.9-13.4-10.1c-5-2.3-10.5-3.5-16-3.6
	c-10.2-0.2-18.9,3-26.1,9.5c-4.1,3.8-7.3,8.5-9.3,13.7c-1.1,2.6,0.1,5.5,2.7,6.6c0.6,0.3,1.3,0.4,1.9,0.4L717.8,208.4z"/>
<path class="st0" d="M727.6,239.8c1.1,0.4,2.1,1,3,1.7c1.4,1.5,0.4,3-0.6,4.6c-2.8,4.5-6.3,8.6-10.4,12c-8.4,7-18.9,10.4-29.7,10.8
	c-9.6,0.3-19.5-1.3-27.9-6.1s-14.7-12.5-18.9-21c-4.5-9.2-6.2-19.4-5-29.5c1.2-10.2,5.4-19.8,12.1-27.6c5.8-7,13.6-12.2,22.4-14.7
	c9.2-2.5,19-2.6,28.3-0.2c8.8,2.3,16.7,7.2,22.7,13.9c6.7,7.4,10.9,16.6,12.3,26.5c0.4,2.5,1.4,6.6-2.2,6.7c-0.7,0-1.4,0-2.1,0H656
	c-0.6,0-1.3,0-1.9,0c-4.1,0-7.5,3.3-7.5,7.5c0,0.5,0.1,1.1,0.2,1.6c1.3,10.2,6.4,19.6,14.1,26.4c7.9,6.7,18.1,10,28.4,9.2
	c10.9-0.7,22.1-5.2,29.4-13.6c1.8-2,3.4-4.1,4.9-6.3C724.4,240.5,725.6,238.8,727.6,239.8c1.2,0.6,2.6,0.2,3.4-0.9
	c0.7-1.2,0.3-2.7-0.9-3.4c-2.5-1.3-5.5-1.1-7.9,0.5c-2.3,1.6-3.6,4.5-5.3,6.7c-3.1,4-7,7.3-11.5,9.7c-9.7,5-21.6,6.3-31.9,2.3
	c-9-3.4-16.4-11.3-19.8-20.3c-0.9-2.4-1.6-4.9-2-7.5c-0.3-1.7-0.7-3.8,1.3-4.7c0.7-0.2,1.5-0.3,2.2-0.2h76.5c0.6,0,1.3,0,2,0
	c2,0,3.8-0.8,5.3-2.1c2-1.9,2.4-4.4,2.1-7.1c-0.9-10.8-5-21.1-11.7-29.6c-6-7.6-14.1-13.4-23.3-16.7c-9.7-3.3-20.1-4-30.2-2.1
	c-9.5,1.7-18.4,6.2-25.4,12.9c-7.8,7.5-13.4,17-16,27.4c-2.6,10.6-2.2,21.7,1.1,32.1c3.3,10.1,9.4,19,17.4,25.8
	c7.7,6.3,17.1,9.7,27,10.8c11.3,1.3,23-0.2,33.2-5.3c5.1-2.6,9.8-6,13.7-10.1c1.9-2,3.7-4.2,5.4-6.5c1.6-2.3,3.6-4.8,3.9-7.6
	c0.2-2.4-0.8-4.7-2.6-6.3c-1.1-0.8-2.3-1.5-3.5-2.1C727.2,234.1,724.8,238.3,727.6,239.8z"/>
<path class="st0" d="M717.8,210.9c4.2-0.1,7.5-3.5,7.5-7.7c0-0.2,0-0.5,0-0.7c-0.3-2.3-1.5-4.5-2.6-6.5s-2.4-4-3.8-5.8
	c-5.8-7.2-14.7-12-23.6-13.7c-9.1-1.8-18.6-0.6-26.9,3.5c-7.8,4-14,10.6-17.5,18.6c-1,2.2-1.8,4.2-1.2,6.6c0.5,2,1.7,3.6,3.5,4.7
	c1.4,0.8,2.9,1.1,4.5,1h38.6c7.1,0,14.2,0.2,21.3,0L717.8,210.9c3.1,0,3.1-4.9,0-4.9h-45.2c-5.3,0-10.6,0.2-15.8,0
	c-1,0-1.9-0.6-2.4-1.5c-0.6-1.4,0.3-2.9,1-4.3c1.6-3.6,3.9-6.8,6.6-9.6c5.4-5.4,12.5-8.8,20.2-9.6c8.8-1,17.6,1,25.1,5.7
	c3.3,2,6.1,4.6,8.4,7.7c1.2,1.7,2.3,3.5,3.2,5.4c0.7,1.4,1.8,3.2,1.3,4.6c-0.3,1.1-1.3,1.8-2.4,1.8
	C714.7,206.1,714.7,211,717.8,210.9z"/>
<path class="st0" d="M866,134.6v129.2c0,2.8-2.3,5-5,5h-2.7c-2.8,0-5-2.2-5-5l0,0c0-2.8-2.3-5-5.1-5c-1.2,0-2.3,0.4-3.2,1.2
	c-3.1,2.5-6.4,4.7-10,6.5c-6.9,3.4-14.5,5.1-22.1,5c-14.2,0-26.4-5.2-36.4-15.5c-10.1-10.3-15.1-22.9-15.1-37.6
	c-0.2-14,5.3-27.4,15.3-37.2c10.1-10.3,22.4-15.4,36.7-15.4c7.8-0.1,15.5,1.7,22.4,5.3c3.3,1.8,6.5,3.9,9.3,6.4
	c2.1,1.8,5.3,1.6,7.1-0.5c0.8-0.9,1.3-2.1,1.2-3.3v-39.1c0-2.8,2.3-5,5-5l0,0h2.7C863.8,129.6,866,131.9,866,134.6z M814.3,178.3
	c-14.3-0.1-27.5,7.6-34.4,20.2c-7.2,12.6-7.2,28,0,40.6c3.4,6.2,8.5,11.5,14.6,15.1c5.9,3.5,12.7,5.4,19.6,5.4
	c7.1,0,14-1.8,20.1-5.3c6.1-3.4,11.2-8.4,14.6-14.5c3.5-6.3,5.2-13.4,5.1-20.6c0-11.6-3.8-21.3-11.5-29.1
	C835.2,182.3,824.9,178,814.3,178.3z"/>
<path class="st0" d="M863.5,134.6V260c0,1.6,0.4,4.2-0.6,5.4c-1.1,1.2-2.6,0.9-4,0.9s-2.9-0.6-3.1-2.2c-0.1-1-0.2-2-0.5-3
	c-0.5-1.3-1.3-2.4-2.4-3.2c-2-1.6-4.6-2-7-1.2c-1.2,0.5-2.3,1.2-3.3,2.1c-1.3,1.1-2.8,2-4.2,2.9c-2.6,1.7-5.4,3.1-8.3,4.2
	c-5.9,2.2-12.1,3.2-18.4,3c-10.9-0.1-21.5-4.1-29.8-11.1c-8.5-7.1-14.5-16.9-16.9-27.7c-2.3-10.6-1.5-22.3,3-32.3
	c4.7-10.1,12.5-18.5,22.3-23.9c10.1-5.4,21.8-7,33.1-4.6c6,1.3,11.6,3.8,16.5,7.3c2.3,1.7,4.3,4.1,7.3,4.5c2.5,0.3,5-0.6,6.7-2.5
	c1.6-2,1.9-4.1,1.9-6.5v-35.6c0-1.5-0.2-3.2,1.1-4.1c1-0.7,2.7-0.5,3.9-0.5c1.5-0.1,2.7,1,2.8,2.5
	C863.5,134.6,863.5,134.6,863.5,134.6c0.1,3.2,5,3.2,4.9,0c0-2.9-1.7-5.5-4.4-6.8c-1.8-0.7-3.8-0.9-5.7-0.7c-4.2,0-7.6,3.5-7.6,7.7
	v0.1c0,5.2,0,10.3,0,15.5v19.8c0.1,1.3,0.1,2.5,0,3.8c-0.1,0.7-0.4,1.3-1,1.7l-0.7,0.4c-0.4,0.2-0.9,0.3-1.3,0.2
	c0.4,0-0.5-0.1-0.4-0.1c0.2,0.1-0.2-0.1-0.2-0.1c-0.5-0.3-1.1-0.7-1.5-1.2c-1.4-1.2-2.8-2.3-4.3-3.3c-10.7-7.3-24.1-9.5-36.8-7.6
	c-11.6,1.9-22.2,7.5-30.2,16c-8.2,8.4-13.4,19.3-14.9,30.9c-1.6,11.7,0.5,23.6,6,34.1c5.6,10.4,14.3,18.7,24.8,23.9
	c11.2,5.2,23.9,6.4,35.9,3.4c6.5-1.6,12.6-4.6,18-8.6c1-0.9,2-1.6,3.1-2.3c0.7-0.3,1.5-0.3,2.2,0c0.6,0.3,1,0.7,1.3,1.3
	c0.1,0.3,0.2,0.6,0.2,1c0,0.7,0.1,1.3,0.3,2c0.8,2.8,3,4.9,5.9,5.4c1.8,0.3,3.5,0.3,5.3,0c3.6-0.7,6.2-3.9,6.2-7.5
	c0.1-6.8,0-13.5,0-20.3V134.6C868.4,131.5,863.5,131.5,863.5,134.6z"/>
<path class="st0" d="M814.3,175.8c-9.1,0-18,2.9-25.3,8.4c-7.1,5.5-12.3,13-15,21.6c-5.6,17.5,1.2,37.4,15.9,48.2
	c15,11,35.9,10.2,50.6-1c14-10.7,19-29.8,14.4-46.5c-4.3-15.7-18-28-34.1-30.2C818.7,176,816.5,175.9,814.3,175.8c-3.2,0-3.2,5,0,5
	c7.2-0.1,14.3,2,20.3,5.9c6,4,10.8,9.7,13.7,16.3c2.9,6.9,3.9,14.5,2.9,22c-0.9,7.6-4.2,14.7-9.3,20.3
	c-11.1,11.9-29.8,15.4-44.3,7.9c-18.9-10-26.2-33.4-16.3-52.3c1.7-3.2,3.8-6.1,6.3-8.7c5.5-5.7,12.8-9.5,20.6-10.8
	c2-0.3,4-0.5,6-0.4C817.5,180.7,817.5,175.8,814.3,175.8z"/>
<path class="st0" d="M608.7,55.4L828,3.3c15.7-3.7,31.4,6,35.1,21.6l4.5,19.1c3.7,15.7-6,31.4-21.6,35.1l-219.3,52
	c-15.7,3.7-31.4-6-35.1-21.6l-4.5-19.1C583.4,74.8,593,59.1,608.7,55.4z"/>
<path class="st1" d="M651.8,114.6l2.6-49.7c0-1.6,1.2-3,2.8-3.3c1.4-0.5,3,0.1,3.7,1.4l24.7,43.9c0.7,1.1,0.7,2.5,0,3.6
	c-0.4,0.8-1.1,1.3-2,1.5c-1.6,0.5-3.2-0.2-4-1.7l-4.9-8.6l-15.5,3.7l-0.6,10.6c0,0.6-0.3,1.1-0.7,1.5c-0.5,0.5-1.1,0.9-1.8,1.1
	c-0.9,0.2-1.9,0.1-2.7-0.4s-1.4-1.3-1.6-2.2C651.8,115.6,651.8,115.1,651.8,114.6z M658.4,46.9c0.4-0.3,0.9-0.6,1.4-0.7
	c0.9-0.2,1.9-0.1,2.6,0.5c0.8,0.5,1.3,1.3,1.5,2.2c0.4,1.3-0.1,2.7-1.2,3.5l-11,8.6c-0.4,0.3-0.9,0.6-1.4,0.7
	c-0.9,0.2-1.9,0.1-2.6-0.5c-0.8-0.5-1.3-1.3-1.5-2.2c-0.4-1.3,0.1-2.7,1.2-3.5L658.4,46.9z M661,77.4l-1.2,20.8l11.5-2.7L661,77.4z"
	/>
<path class="st1" d="M652.6,114.6l1.1-21.5l1.4-27c0.1-1.2,0-2.6,1.1-3.4c1.1-0.9,2.8-0.7,3.7,0.4c0.1,0.1,0.2,0.2,0.2,0.4
	c0.1,0.2,0.3,0.5,0.4,0.7l5,8.8l15.5,27.6c1.2,2.2,2.6,4.4,3.7,6.6c0.8,1.6,0.4,4.1-1.6,4.4c-1.6,0.3-2.4-0.9-3.1-2.1l-3.5-6.4
	l-0.9-1.7c-0.2-0.3-0.7-0.2-0.9-0.2l-15.5,3.7c-0.2,0.1-0.7,0.3-0.7,0.6l-0.4,7.2c-0.1,1.1-0.1,2.2-0.2,3.2
	c-0.1,1.2-1.1,2.1-2.3,2.2C653.7,118.3,652.6,116.4,652.6,114.6c0-0.7-1.6-0.4-1.6,0.2c-0.2,2.3,1.5,4.3,3.7,4.6
	c0.5,0.1,1.1,0,1.6-0.1c1.4-0.3,2.6-1.3,3.1-2.6c0.1-0.4,0.1-0.9,0.1-1.3l0.6-9.7l-0.7,0.6l15.5-3.7l-0.9-0.2l3.2,5.7
	c1.1,1.9,2.1,4.6,4.5,4.8c3.5,0.4,6.2-2.9,4.5-6.1c-0.4-0.7-0.8-1.4-1.2-2.2l-15.4-27.4l-6.7-12c-0.4-0.8-0.9-1.6-1.3-2.4
	c-1.5-2.5-5.3-2.2-7.1-0.2c-0.7,1-1.1,2.3-1,3.6l-0.2,4.6l-0.8,15.7c-0.5,9.3-1.1,18.5-1.5,27.8v0.5
	C651,115.5,652.6,115.2,652.6,114.6z"/>
<path class="st1" d="M658.9,47.2c2.7-2,5.7,2.3,3.7,4.6c-0.6,0.5-1.2,1-1.8,1.5l-7.4,5.8c-0.7,0.5-1.3,1.1-2,1.6
	c-2.4,1.7-5.1-1.2-4.2-3.6c0.3-1,1.3-1.5,2-2.1l3.4-2.7L658.9,47.2c0.9-0.7-0.5-1.1-1-0.6l-6.6,5.2l-3.7,2.9c-1.2,1-2.3,2-2.2,3.7
	c0.2,2.3,2.2,4.1,4.5,3.9c0.6,0,1.1-0.2,1.6-0.5c0.9-0.5,1.8-1.2,2.6-1.9l8.3-6.5c1.3-1,2.6-2.1,2.5-3.9c-0.1-1.6-1-2.9-2.4-3.6
	c-1.5-0.6-3.3-0.4-4.6,0.6C657,47.2,658.3,47.6,658.9,47.2z"/>
<path class="st1" d="M660.2,77.4l-1.1,18.2l-0.2,2.6c0,0.5,0.6,0.5,0.9,0.4l11.5-2.7c0.4-0.1,0.8-0.4,0.6-0.8l-9-15.8l-1.3-2.2
	c-0.3-0.6-1.9,0-1.5,0.7l9,15.8l1.3,2.2L671,95l-11.5,2.7l0.9,0.4l1.1-18.2l0.2-2.6C661.9,76.5,660.2,76.8,660.2,77.4z"/>
<path class="st1" d="M701.9,103.9l-11.8-49.6c-0.1-0.3,0.1-0.5,0.4-0.6l23.5-5.5c2.7-0.7,5.6-0.2,7.9,1.3c2.4,1.4,4.1,3.8,4.7,6.5
	l0.8,3.6c0.7,2.8,0.3,5.7-1.1,8.2c-1.4,2.5-3.8,4.2-6.5,4.8l-3.5,0.8c-0.3,0.1-0.4,0.3-0.4,0.6c0,0.1,0.1,0.2,0.1,0.2l19,20
	c0.5,0.5,0.9,1.2,1.1,2c0.2,0.9,0,1.8-0.5,2.6c-0.5,0.8-1.3,1.4-2.2,1.6c-1.3,0.3-2.6-0.1-3.5-1.1l-22.1-23.5
	c-0.1-0.1-0.3-0.2-0.5-0.1l-4.2,1c-0.3,0.1-0.4,0.3-0.4,0.6l6,25.2c0.3,1,0.1,2.1-0.4,2.9s-1.3,1.3-2.2,1.5s-1.8,0.1-2.6-0.4
	C702.7,105.8,702.1,104.9,701.9,103.9z M701.5,69.8l16.6-3.9c1-0.2,1.9-0.8,2.4-1.7c0.5-0.8,0.6-1.7,0.4-2.6l-0.9-3.7
	c-0.2-1-0.8-1.9-1.7-2.4c-0.8-0.5-1.7-0.6-2.6-0.4L699,59c-0.3,0.1-0.4,0.3-0.4,0.6l0,0l2.3,9.8C701,69.7,701.3,69.8,701.5,69.8z"/>
<path class="st1" d="M702.7,103.7L699,88l-6.2-26.1l-1.7-7.2c0-0.2-0.1-0.4-0.1-0.5c0,0-0.6,0.1,0,0c1.3-0.3,2.6-0.6,3.8-0.9l13-3.1
	c3.1-0.7,7-2.2,10.2-1.6c3.9,0.8,6.9,3.8,7.8,7.6c0.7,2.2,1.1,4.4,1.1,6.7c-0.1,4.2-2.9,7.8-6.9,9.1c-0.9,0.3-1.8,0.4-2.7,0.6
	c-0.6,0.2-1.7,0.2-2.1,0.8c-0.6,0.8,0.4,1.5,0.9,2l3.3,3.4l9.4,9.9c1.8,1.9,3.6,3.7,5.3,5.6c0.8,0.7,1.2,1.8,1.1,2.8
	c-0.1,1.5-1.4,2.6-2.9,2.5h-0.1c-0.7-0.2-1.3-0.6-1.8-1.2c-0.7-0.8-1.4-1.5-2.2-2.3L711.1,78c-0.8-0.8-1.5-1.6-2.3-2.4
	s-1.6-0.5-2.6-0.3s-4.2,0.4-4.1,2c0.1,0.9,0.3,1.7,0.6,2.6c1.8,7.4,3.6,14.8,5.3,22.3c0.2,0.6,0.2,1.3,0.1,1.9
	c-0.2,1.4-1.4,2.3-2.8,2.2c-0.2,0-0.4-0.1-0.7-0.2C703.6,105.6,702.9,104.7,702.7,103.7c-0.2-0.6-1.8-0.2-1.6,0.4
	c0.6,2.3,3,3.7,5.3,3.1c0.7-0.2,1.3-0.5,1.8-1c1.6-1.3,1.6-3.1,1.2-4.9l-2.7-11.4L703.9,78c-0.1-0.3-0.1-0.7-0.2-1
	c0-0.1-0.5,0.1-0.1,0l1.4-0.3l1.6-0.4c0.2,0,0.4-0.1,0.6-0.1c0.4-0.2,0,0.1-0.2,0c0.1,0.2,0.3,0.3,0.4,0.5l17,18l3.5,3.7
	c0.6,0.6,1.2,1.2,1.8,1.8c2.1,1.4,5.1,0.9,6.5-1.3c0.2-0.3,0.4-0.7,0.5-1c0.6-1.9-0.6-3.3-1.8-4.6L718,75.5
	c-0.4-0.4-0.7-0.8-1.1-1.2c-0.1-0.1-0.1-0.2-0.2-0.3s-0.5,0-0.1-0.1c1-0.3,2-0.6,3-0.7c1.3-0.3,2.6-0.8,3.7-1.5
	c3.2-2,5.1-5.5,5.2-9.3c-0.1-2.2-0.5-4.4-1.2-6.5c-1.6-6.2-7.8-9.4-13.9-8c-3.6,0.8-7.3,1.7-10.9,2.6l-11.6,2.7
	c-0.8,0.2-1.8,0.4-1.7,1.5c0.1,0.6,0.2,1.2,0.4,1.8l5.6,23.7l5.4,22.7l0.3,1.3C701.3,104.8,702.9,104.3,702.7,103.7z"/>
<path class="st1" d="M701.6,70.2l12.1-2.9c1.5-0.3,2.9-0.7,4.4-1c1.8-0.4,3.1-1.7,3.5-3.5c0-1.2-0.2-2.4-0.6-3.5
	c-0.1-1.3-0.6-2.5-1.3-3.6c-1.1-1.1-2.7-1.6-4.3-1.1c-1.6,0.3-3.1,0.7-4.7,1.1l-7.9,1.9c-1.4,0.3-2.8,0.5-4.1,1
	c-1.1,0.4-1.1,1.1-0.8,2l0.9,3.8l1,4c0.2,0.9,0.2,1.8,1.4,1.8c0.7,0,1.7-1,0.6-1c-0.3,0-1.1-4.5-1.2-4.9l-0.8-3.3
	c0-0.6-0.2-1.1-0.4-1.6c0,0-0.6,0.1-0.1,0l0.7-0.2l2.5-0.6l7-1.6l5.6-1.3c0.6-0.2,1.2-0.3,1.8-0.2c1.6,0.4,2.1,2,2.5,3.4
	c0.6,2.3,1.8,5.6-1.5,6.5c-1.4,0.4-2.8,0.7-4.2,1l-12.1,2.9C700.4,69.5,700.6,70.5,701.6,70.2z"/>
<path class="st1" d="M772.4,41.6l-23.6,5.6c-0.2,0-0.3,0.2-0.3,0.4l3.8,15.8c0,0.2,0.2,0.3,0.4,0.3l9.9-2.4c0.9-0.2,1.8-0.1,2.6,0.4
	c0.8,0.4,1.4,1.2,1.6,2.1c0.2,0.9,0.1,1.9-0.4,2.7c-0.5,0.8-1.4,1.4-2.4,1.6l-9.8,2.3c-0.2,0-0.3,0.2-0.3,0.4l0,0l3.8,15.9
	c0,0.2,0.2,0.3,0.4,0.3l23.7-5.6c0.8-0.2,1.7-0.1,2.4,0.3c1,0.5,1.7,1.4,1.9,2.5c0.2,1,0,2-0.7,2.8c-0.5,0.7-1.3,1.2-2.2,1.4
	L753,95.5c-0.2,0-0.4-0.1-0.4-0.3l0,0l-12.6-53c0-0.2,0.1-0.4,0.3-0.4l0,0l30.4-7.2c0.9-0.2,1.9-0.1,2.7,0.5
	c0.8,0.5,1.4,1.3,1.6,2.2c0.2,0.9,0.1,1.9-0.5,2.6C774.1,40.8,773.3,41.4,772.4,41.6z"/>
<path class="st1" d="M772.2,41.1c-7.7,1.8-15.6,3.5-23.3,5.5c-1.3,0.4-1.3,1.1-1,2.2l1.6,6.9l1.6,6.9c0,0.5,0.2,0.9,0.5,1.3
	c0.5,0.5,1.3,0.2,1.8,0.1l7.3-1.7c0.7-0.2,1.4-0.4,2.1-0.5c3.6-0.4,4.3,4.9,1,5.9c-1.9,0.6-3.9,0.9-5.8,1.4l-3.3,0.8
	c-0.7,0.2-1.5,0.3-1.6,1.2c0,0.4,0.1,0.8,0.3,1.2l0.7,3.1l1.8,7.8l0.7,3c0,0.5,0.2,0.9,0.4,1.3c0.7,0.8,2.5,0,3.3-0.2l14.8-3.5
	l5.8-1.4c0.4-0.1,0.7-0.2,1.1-0.2c3.6-0.4,4.3,4.8,1,5.8c-3,0.9-6.1,1.5-9.2,2.2l-15.6,3.6l-4.8,1.1c-0.2,0-0.3,0.1-0.5,0.1
	c-0.6,0.3,0.8-0.6,0.3,0.1c0-0.1-0.1-0.4-0.1-0.5c-0.2-1.1-0.4-2.1-0.7-3.1l-1.3-5.5l-7.4-31.3l-2.6-10.9c0-0.2-0.2-1.7-0.4-1.8
	c0.1,0.1-0.6,0.2-0.2,0.3c0.2,0,0.4-0.1,0.5-0.1l1.8-0.4l27.2-6.4c0.2-0.1,0.5-0.1,0.7-0.2C774.4,34.7,775.7,40,772.2,41.1
	c-1,0.2-0.7,1.3,0.3,1c1.9-0.4,3.3-2,3.4-3.9c0-2-1.5-3.7-3.4-4c-1.3-0.1-2.6,0.1-3.9,0.5l-14.8,3.5l-13,3.1
	c-0.8,0.2-1.6,0.5-1.5,1.5c0.2,0.9,0.4,1.8,0.7,2.7l7,29.6l3.5,14.7l1,4.4c0.1,0.6,0.2,1.6,0.8,1.9s2.4-0.3,3.1-0.4l6.5-1.5
	l16.3-3.9c3.1-0.7,9.3-1.2,8.8-5.7c-0.3-3-3.2-3.9-5.8-3.3l-5.5,1.3l-15.5,3.7c-0.6,0.1-1.3,0.2-1.9,0.4c-0.4,0.2,0.1,0,0,0.1
	c-0.5,0.7,0.3,0,0.3,0v-0.1l-0.1-0.3c-0.1-0.9-0.3-1.7-0.6-2.6l-0.9-3.9l-1.8-7.5c-0.1-0.4-0.1-0.7-0.2-1c0-0.1,0-0.3-0.1-0.3
	s0.1,0.2-0.2,0c0.4,0.3-0.5,0,0,0.1c0.1,0,0.3,0,0.4-0.1l1.6-0.4c2.4-0.6,4.9-1.1,7.3-1.7c1.1-0.2,2.2-0.8,2.9-1.7
	c1.2-1.6,1.1-3.8-0.3-5.2c-2-2-4.5-1-6.8-0.5l-4.2,1c-1,0.1-2,0.3-2.9,0.7c-0.4,0.2,0.2,0.1,0.3,0s-0.1-0.6-0.2-0.8l-0.7-3l-2-8.3
	l-0.7-2.9c0-0.1-0.1-0.6-0.2-0.7s-0.5,0.1-0.3,0.2c0.1,0.1,1.3-0.3,1.5-0.4l2.9-0.7l15.8-3.8l3.3-0.8
	C773.5,41.9,773.2,40.8,772.2,41.1z"/>
<path class="st1" d="M801.7,79.1l2.6-49.7c0-1.6,1.2-3,2.8-3.3c1.4-0.5,3,0.1,3.7,1.4l24.7,43.9c0.2,0.3,0.3,0.6,0.4,1
	c0.2,0.9,0.1,1.8-0.4,2.6c-0.4,0.8-1.1,1.3-2,1.5c-1.6,0.5-3.2-0.2-4-1.7l-4.8-8.6L809.3,70l-0.6,10.6c0,0.6-0.3,1.1-0.7,1.5
	c-0.5,0.5-1.1,0.9-1.8,1c-0.9,0.3-1.9,0.1-2.7-0.4s-1.4-1.3-1.6-2.2C801.7,80,801.7,79.5,801.7,79.1z M810.9,41.9l-1.2,20.8
	l11.5-2.7L810.9,41.9z"/>
<path class="st1" d="M802.5,78.9l1.1-21.4l1.4-27.1c-0.1-1.2,0.2-2.5,1-3.4c1.9-1.8,3.6,0,4.4,1.6l5.1,9L831,65
	c1.2,2.2,2.5,4.3,3.7,6.5c0.8,1.5,0.7,3.5-0.9,4.4s-2.9-0.5-3.7-1.8l-3.7-6.4l-0.9-1.6c-0.1-0.3-0.7-0.1-0.9-0.1l-15.5,3.7
	c-0.2,0.1-0.7,0.2-0.7,0.5l-0.4,7.2c-0.1,1.1-0.1,2.2-0.2,3.2c-0.2,1.3-1.4,2.3-2.8,2.1c-0.2,0-0.4-0.1-0.6-0.2
	C803,81.8,802.3,80.4,802.5,78.9c-0.1-0.3-1.6-0.1-1.7,0.4c-0.1,3.2,2.7,4.9,5.7,3.9c1.3-0.3,2.3-1.2,2.8-2.5
	c0.1-0.4,0.1-0.8,0.1-1.3l0.6-9.7l-0.7,0.5l15.5-3.7l-0.9-0.1l3.2,5.7c1,1.8,2,4.5,4.4,4.8c3.3,0.4,6.5-2.5,4.8-5.8
	c-0.4-0.7-0.8-1.5-1.2-2.2l-15.5-27.5L813,29.6c-0.4-0.8-0.8-1.5-1.3-2.3c-1.5-2.4-5.2-2.1-7.1-0.3c-0.8,1-1.2,2.3-1.1,3.6l-0.2,4.4
	l-0.8,15.8l-1,17.5c-0.2,3.5-0.5,7-0.6,10.5c0,0.2,0,0.4,0,0.5C800.9,79.5,802.5,79.4,802.5,78.9z"/>
<path class="st1" d="M810.1,42L809,60.2l-0.1,2.6c0,0.3,0.8,0.1,0.9,0.1l11.5-2.7c0.1,0,0.8-0.3,0.7-0.5l-9-15.8l-1.3-2.2
	C811.4,41.2,809.9,41.8,810.1,42l9,15.9l1.3,2.2l0.7-0.5l-11.5,2.7l0.9,0.1l1.1-18.2l0.2-2.6C811.7,41.3,810.1,41.5,810.1,42z"/>
</svg>
