<svg xmlns="http://www.w3.org/2000/svg" viewBox="0 0 876.52 276.52"><defs><style>.cls-1{fill:#fff;}.cls-2{fill:#159fa3;}</style></defs><g id="Camada_2" data-name="Camada 2"><g id="Camada_1-2" data-name="Camada 1"><path class="cls-1" d="M295.84,109c-9.14-4.8-12.92-12.91-15.62-22.25a153.11,153.11,0,0,0-39.13-66.64C228.43,7.48,205.65-.08,187.45,0c-72.23.31-67,43.69-98.84,46-14.38,1-28.74,1.11-42.51,7.38C22.18,64.3,17.88,84.81,22.43,105.83c2.6,12,7.65,23.23,13.22,34.09,1.88,3.66-.07,4.05-2.18,5.77-8.51,6.93-17,13.85-24,22.56C-6,187.39-2.42,203.33,19.33,213.86c16.13,7.82,33.21,11,50.51,13.44,4.48.62,5.26,2.94,6,6.23a62.79,62.79,0,0,0,10.17,22c5.9,8.39,13.85,10.48,22.95,10.73,8.83.24,17.58,1.15,26.34-1.71,10.59-3.45,20.24,1.71,30.08,4.88,26.56,8.56,52,4.18,76.31-8,18.38-9.21,32.82-23.06,41.07-42.81,1.75-4.2,2.53-23.68,18.34-30.18a37,37,0,0,0,19.47-19.68C334.62,135.59,306.49,114.62,295.84,109ZM127.22,49.53c4.89-14.93,17.57-26.62,29.78-32,15.66-6.94,31.4-3.33,45.41,5.29C223.83,36,235.65,57.33,246.9,81.71,206.34,63.58,127.22,49.53,127.22,49.53Zm-18,45.1C113,82.47,114,80.05,117.83,67.9c1-3.18,3.06-4.23,5.8-3.59,26,6.1,52,12.1,77.08,21.77.16.06.2.41.57,1.21-31.47,3-62.39,4.91-92,15.06C105.09,103.79,108.17,98.1,109.24,94.63ZM33.14,197C8.1,185,45.31,151.61,45.31,151.61s20.28,28.06,26.42,55.2C71.73,206.81,44.31,202.42,33.14,197Zm47.27-21.95S66.79,151.27,61.86,142.5a2.19,2.19,0,0,1,.65-2.87l13-8.92a2.11,2.11,0,0,1,3.27,2C78.17,140.05,80.41,175.09,80.41,175.09Zm5.91-81.74c-2.4,7.24-3.59,18.86-9.87,23-1.72,1.13-11.25,9.34-12.75,10.21a6.17,6.17,0,0,1-8.38-2.15c-6.6-10.66-19.4-36-5.22-54.28A30,30,0,0,1,71.38,58.66c11.09-.9,29.35-1.39,26.14,5.61A243.8,243.8,0,0,0,86.32,93.35ZM98.49,242.73c-3.45-5.38.42-8.46,2.33-11.53,2.12-3.41,4.83-.11,6.92,1.72,8.18,7.18,16,14.82,26.62,21.18C118.74,258,107,256,98.49,242.73Zm59.83-7.93c-3.69-1.2-7.17-3.14-10.74-4.74,33.42-4.32,66.36-8.15,98.7-16.92C235.09,218,224,223,212.69,227.57s-22.62,10-34.45,12.37C172.17,241.18,164.93,236.93,158.32,234.8Zm24.44,18.74c25.9-10.17,51.27-20,75.65-35.27C248.15,258.55,220.92,270.57,182.76,253.54Zm81.92-59.78c-.77,5.23-3.38,6.78-6.94,7.73-9.74,2.58-19.51,5.3-29.44,6.84-18.16,2.82-36.34,5.83-54.67,7.11a196.83,196.83,0,0,1-36.92-.45c-21.37-2.54-37.4-21.38-36.94-43.46.38-18.4,1.06-40.49,2.2-47.51,1-6,4-8,8.73-9.51,18.35-6,37-9.61,56.18-12.31,28.93-4.06,56.67-1.67,84.05,8.25,4.5,1.63,7.07,4.13,8.58,9.45a151,151,0,0,1,5.16,34.19C265.75,168.72,266.55,181.14,264.68,193.76Zm21.58-17.15-.78-58.15c17.76,7.14,22.57,24.43,22.21,31.71C307.17,160.56,301.92,168.79,286.26,176.61Z"/><path class="cls-2" d="M355.73,135.56h3.57a5.13,5.13,0,0,1,5.13,5.12v128.1a5.13,5.13,0,0,1-5.13,5.13h-3.57a5.13,5.13,0,0,1-5.13-5.13V140.68A5.13,5.13,0,0,1,355.73,135.56Z"/><path class="cls-2" d="M355.73,138.06c2.39,0,6-.62,6.2,2.62,0,.33,0,.67,0,1V254.12c0,4.86.26,9.8,0,14.66-.17,3.13-3.8,2.76-6.18,2.63a2.71,2.71,0,0,1-2.65-2.88c0-1.94,0-3.87,0-5.8V158.81c0-6-.05-11.92,0-17.87a2.69,2.69,0,0,1,2.63-2.88c3.21-.11,3.22-5.11,0-5a7.75,7.75,0,0,0-7.63,7.7c0,.55,0,1.11,0,1.66V267.23c0,.5,0,1,0,1.5a7.77,7.77,0,0,0,7.71,7.68c1.27,0,2.56.06,3.83,0a7.7,7.7,0,0,0,6.37-4,8.79,8.79,0,0,0,.92-4.27V143.76c0-2.69.21-5.31-1.53-7.62a7.76,7.76,0,0,0-6.15-3.08c-1.17,0-2.35,0-3.52,0C352.51,133.06,352.5,138.06,355.73,138.06Z"/><path class="cls-2" d="M392.68,171.58h2.92a5.12,5.12,0,0,1,5.12,5.12h0a5.12,5.12,0,0,0,8.49,3.87,47.82,47.82,0,0,1,9-6.41,43,43,0,0,1,20.88-5.22,36.27,36.27,0,0,1,20.36,5.84,34.72,34.72,0,0,1,13.12,15.7q4.23,9.89,4.23,30.76v47.54a5.13,5.13,0,0,1-5.12,5.13h-2.92a5.13,5.13,0,0,1-5.13-5.13V225.09q0-17.67-1.46-23.6-2.3-10.17-8.78-15.29t-16.93-5.12a32.44,32.44,0,0,0-21.4,7.9,37,37,0,0,0-12.47,19.56q-1.87,7.62-1.88,27.84v32.4a5.13,5.13,0,0,1-5.12,5.13h-2.92a5.13,5.13,0,0,1-5.12-5.13V176.7A5.12,5.12,0,0,1,392.68,171.58Z"/><path class="cls-2" d="M392.68,174.08c1.44,0,3.41-.35,4.54.55a3.12,3.12,0,0,1,1,2.55,7.65,7.65,0,0,0,9.81,6.85,13.14,13.14,0,0,0,4.3-2.89,44,44,0,0,1,4.51-3.28c12.27-7.81,29.11-9,41.49-.82a33.07,33.07,0,0,1,7.18,6.49,31.53,31.53,0,0,1,2.77,4c.39.67.76,1.36,1.11,2,.18.35.35.7.52,1.06l.32.72.1.23a56.1,56.1,0,0,1,3.42,16.2c.63,7.13.53,14.28.53,21.42V254c0,4.9.21,9.85,0,14.75-.08,2-1.61,2.63-3.38,2.63s-3.85.28-4.62-1.68c-.52-1.3-.17-3.39-.17-4.78V241.63c0-5.5,0-11,0-16.5a182.72,182.72,0,0,0-.67-18.57c-.57-5.65-2-11.31-5-16.15a24.91,24.91,0,0,0-15.51-10.91,36,36,0,0,0-21.37,1.5,39.68,39.68,0,0,0-23.95,29.84c-1.5,9.38-1.39,19-1.39,28.44V262.7c0,2,.09,4.06,0,6.07s-1.61,2.64-3.38,2.64-3.85.27-4.62-1.68a8.8,8.8,0,0,1-.16-2.91V177.59c0-1.77.54-3.45,2.62-3.51,3.21-.11,3.22-5.11,0-5a7.8,7.8,0,0,0-7.62,8.09c0,1.44,0,2.89,0,4.33v85.44a12.3,12.3,0,0,0,.46,4.43,7.8,7.8,0,0,0,7.38,5c2.42,0,4.9.14,7-1.33a7.89,7.89,0,0,0,3.33-6.46c0-.86,0-1.73,0-2.6V235.89a200.85,200.85,0,0,1,.83-20.82c.15-1.37.21-1.86.42-3.13.16-1,.35-2,.6-2.93a34.15,34.15,0,0,1,3.91-9.28,35.31,35.31,0,0,1,15.24-13.62,30.68,30.68,0,0,1,20.49-1.5,20.19,20.19,0,0,1,13.14,11.52,32.55,32.55,0,0,1,2.32,8l.12.78a2.61,2.61,0,0,1,0,.31c.07.62.14,1.24.2,1.87.13,1.41.23,2.83.31,4.25.4,7.44.3,14.9.3,22.35v33.77c0,.43,0,.86,0,1.29a7.74,7.74,0,0,0,6,7.44,16.06,16.06,0,0,0,6.55-.07,7.76,7.76,0,0,0,5.65-7.37c0-1.5,0-3,0-4.52V221.69a146.88,146.88,0,0,0-.78-16.38c-.67-5.9-1.76-11.76-4.28-17.17a37.55,37.55,0,0,0-13.7-15.63,39.41,39.41,0,0,0-21.68-6.06,46.2,46.2,0,0,0-22.67,6,47.21,47.21,0,0,0-4.93,3.26c-.83.62-1.65,1.26-2.44,1.92a11.25,11.25,0,0,1-1.89,1.52,2.67,2.67,0,0,1-3.73-2.15,10.62,10.62,0,0,0-1-4,7.58,7.58,0,0,0-3.3-3.09c-2-1-4.12-.78-6.25-.78C389.46,169.08,389.46,174.08,392.68,174.08Z"/><path class="cls-2" d="M555.65,184l-1.39,1.44a5.08,5.08,0,0,1-6.88.35q-8.73-7.12-17.14-7.12a15.61,15.61,0,0,0-11,4.23,13.09,13.09,0,0,0-4.57,9.88,14.66,14.66,0,0,0,3.77,9.5q3.76,4.6,15.83,10.81,14.7,7.62,20,14.68a26.68,26.68,0,0,1,5.19,16.08,28.85,28.85,0,0,1-8.86,21.35q-8.85,8.74-22.13,8.75a38.68,38.68,0,0,1-16.91-3.86,37.48,37.48,0,0,1-10.06-7,5.13,5.13,0,0,1-.27-7.07l1.65-1.87a5.1,5.1,0,0,1,7.25-.44q8.48,7.69,17.78,7.7a19.32,19.32,0,0,0,13.48-5.08,15.73,15.73,0,0,0,5.56-11.95,15.31,15.31,0,0,0-3.68-10.06q-3.68-4.32-16.59-10.91-13.84-7.16-18.85-14.11a26.57,26.57,0,0,1-5-15.89,25.84,25.84,0,0,1,8-19.38q8-7.71,20.11-7.71t24.38,10.17A5.12,5.12,0,0,1,555.65,184Z"/><path class="cls-2" d="M553.89,182.19c-1.26,1.3-2.54,2.94-4.51,1.9a15.34,15.34,0,0,1-2.06-1.54c-.86-.65-1.74-1.26-2.65-1.84a33.07,33.07,0,0,0-5-2.58c-6.46-2.71-14.31-2.94-20.18,1.32s-9.11,11.85-6.22,19c2.4,6,7.58,9.75,12.89,13,6.52,4,13.51,7,19.63,11.6C550.72,226.7,554.36,231,556,237a27.15,27.15,0,0,1-2,19.43,28.2,28.2,0,0,1-13.74,12.79c-6.45,2.73-14,2.85-20.71,1.15a37.18,37.18,0,0,1-10.58-4.5,32.11,32.11,0,0,1-4.23-3.1c-.93-.81-2.15-1.67-2.34-3a2.93,2.93,0,0,1,.89-2.39,14.18,14.18,0,0,1,1.81-2,2.64,2.64,0,0,1,2.72-.24,10.4,10.4,0,0,1,1.87,1.51q1.26,1.05,2.61,2a26.56,26.56,0,0,0,20.41,4.74,21.3,21.3,0,0,0,15.62-13,18.07,18.07,0,0,0-4.29-18.91c-4.55-4.42-10.58-7.42-16.15-10.3-6-3.1-12.18-6.64-16.74-11.72-4.34-4.85-6.25-11.67-5.8-18.34a23.77,23.77,0,0,1,8.27-16.42c4.92-4.28,11.37-6.07,17.8-5.94,7.16.14,13.79,3.29,19.49,7.44,1.85,1.34,5.16,3.46,2.93,5.93s1.37,5.93,3.53,3.54a7.73,7.73,0,0,0,.55-10,22.92,22.92,0,0,0-4.87-4.05,49.21,49.21,0,0,0-5.35-3.33,35.84,35.84,0,0,0-22-4.15,29.68,29.68,0,0,0-18.35,9.74,30.09,30.09,0,0,0,.85,39.8c5.16,5.4,11.89,9.1,18.44,12.51a101.35,101.35,0,0,1,9.58,5.54,21.83,21.83,0,0,1,5.33,4.47,13.22,13.22,0,0,1,2.74,9.64,13.51,13.51,0,0,1-4.31,8.24c-5,4.85-12.31,5.85-18.77,3.65a29.22,29.22,0,0,1-9.4-5.84,7.74,7.74,0,0,0-10.16-.16c-1.75,1.47-3.66,3.76-4.11,6a7.79,7.79,0,0,0,.86,5.47,15.57,15.57,0,0,0,3.9,3.95,42.1,42.1,0,0,0,22.7,9.06,35.1,35.1,0,0,0,21.29-4.62A33.12,33.12,0,0,0,560,255.25a31.78,31.78,0,0,0,.1-21.92c-2.48-6.48-7-11.17-12.5-15.18-6.41-4.65-13.71-7.73-20.37-12-4.87-3.1-10.21-7.38-10-13.83.19-6.85,7.08-11.34,13.43-11.23a21.13,21.13,0,0,1,9.66,2.79,35.59,35.59,0,0,1,5.15,3.45,8.38,8.38,0,0,0,5.14,2c3,.06,4.94-1.71,6.86-3.69C559.66,183.42,556.13,179.88,553.89,182.19Z"/><path class="cls-2" d="M597.25,133.58h2.92a5.13,5.13,0,0,1,5.12,5.13v27.74a5.13,5.13,0,0,0,5.13,5.13h10.63a5.12,5.12,0,0,1,5.12,5.12v1.13a5.13,5.13,0,0,1-5.12,5.13H610.42a5.13,5.13,0,0,0-5.13,5.12v80.7a5.13,5.13,0,0,1-5.12,5.13h-2.92a5.13,5.13,0,0,1-5.12-5.13v-80.7A5.13,5.13,0,0,0,587,183h-7.71a5.13,5.13,0,0,1-5.13-5.13V176.7a5.13,5.13,0,0,1,5.13-5.12H587a5.13,5.13,0,0,0,5.13-5.13V138.71A5.13,5.13,0,0,1,597.25,133.58Z"/><path class="cls-2" d="M597.25,136.08c1.18,0,2.8-.26,3.87.16a2.73,2.73,0,0,1,1.67,2.7c0,2.2,0,4.4,0,6.59V165c0,.48,0,1,0,1.43a7.79,7.79,0,0,0,4.15,6.79,10.22,10.22,0,0,0,4.78.84H617c2.25,0,6.3-.74,6.69,2.29.2,1.57-.06,3.29-1.66,3.93a9.06,9.06,0,0,1-3,.16c-2.85,0-5.72-.09-8.57,0a7.76,7.76,0,0,0-7.64,7.79c0,3.13,0,6.25,0,9.37v41.19c0,9.86.06,19.71,0,29.57a4.07,4.07,0,0,1-.08,1.05c-.42,1.67-1.87,2-3.41,2s-3.23.27-4.22-1.12a2.9,2.9,0,0,1-.45-1.74c0-3.16,0-6.32,0-9.48V217.69c0-9.76.06-19.52,0-29.28a7.79,7.79,0,0,0-6-7.77,20.23,20.23,0,0,0-4.19-.18h-4.84a2.72,2.72,0,0,1-3-2.3c-.19-1.43,0-3.06,1.38-3.78,1-.51,2.42-.3,3.54-.3h4.82c4.52,0,8.12-3.1,8.22-7.75,0-2.09,0-4.18,0-6.27V140.38c0-2,.08-4.22,2.62-4.3,3.21-.1,3.23-5.1,0-5-4.69.15-7.62,3.85-7.62,8.34v7.92c0,6.23,0,12.47,0,18.7a2.89,2.89,0,0,1-1.12,2.59c-.89.64-2.25.45-3.36.45-3.77,0-8.16-.69-11.14,2.12-4,3.72-2.89,11.3,2.09,13.54a11.73,11.73,0,0,0,5,.72h5.12c1.38,0,2.64.25,3.2,1.67a3.61,3.61,0,0,1,.17,1.31v78c0,.76,0,1.53,0,2.29a7.78,7.78,0,0,0,3.73,6.57c2,1.15,4.08,1.07,6.26,1.07a7.81,7.81,0,0,0,8.17-7.73c0-1,0-1.92,0-2.88V191.27c0-1,0-2.05,0-3.06a2.72,2.72,0,0,1,1.12-2.28c.91-.64,2.09-.47,3.17-.47,3,0,6,.08,8.94,0,5.72-.16,9.16-6.12,7.19-11.34a7.75,7.75,0,0,0-6.82-5c-1.08-.06-2.17,0-3.25,0h-5.47a9.48,9.48,0,0,1-3.2-.17c-2.09-.82-1.68-3.24-1.68-5.12v-20.7a29.71,29.71,0,0,0-.18-6,7.7,7.7,0,0,0-5.47-5.71,19.5,19.5,0,0,0-4.89-.26C594,131.08,594,136.08,597.25,136.08Z"/><path class="cls-1" d="M734.25,239.52l2.27,1.2a5.12,5.12,0,0,1,2,7.14,56.08,56.08,0,0,1-10,12.6,50.23,50.23,0,0,1-16.1,10,56.15,56.15,0,0,1-20.24,3.44q-25.05,0-39.16-16.42t-14.12-37.1a54.67,54.67,0,0,1,12-34.7q15.15-19.38,40.57-19.38,26.17,0,41.8,19.85,9.6,12.1,11,29.42a5.13,5.13,0,0,1-5.11,5.56H658a5.11,5.11,0,0,0-5.1,5.69,40.12,40.12,0,0,0,11,23.54,36.36,36.36,0,0,0,27.22,11.4,43.8,43.8,0,0,0,15.21-2.71,40.1,40.1,0,0,0,12.57-7.22,52,52,0,0,0,8.73-10.59A5.14,5.14,0,0,1,734.25,239.52Zm-11.17-29.76a5.13,5.13,0,0,0,4.77-7,37.17,37.17,0,0,0-5.47-9.82,36.52,36.52,0,0,0-13.67-10.32,41.19,41.19,0,0,0-16.34-3.69q-15.54-.24-26.63,9.68a38.16,38.16,0,0,0-9.49,14,5.14,5.14,0,0,0,4.73,7.13Z"/><path class="cls-1" d="M733,241.68a11.91,11.91,0,0,1,3.08,1.78c1.42,1.53.39,3.09-.63,4.7a52.28,52.28,0,0,1-10.6,12.23c-8.55,7.13-19.26,10.62-30.3,11-9.8.31-19.82-1.28-28.41-6.21s-15-12.71-19.29-21.35a53.83,53.83,0,0,1-5.05-30.06,52.84,52.84,0,0,1,12.3-28.07,46.3,46.3,0,0,1,22.8-15,55.87,55.87,0,0,1,28.79-.17,47.37,47.37,0,0,1,23.12,14.21,51.06,51.06,0,0,1,12.56,27c.38,2.5,1.4,6.69-2.28,6.85-.73,0-1.47,0-2.19,0h-77c-.64,0-1.28,0-1.92,0a7.63,7.63,0,0,0-7.48,9.26,43,43,0,0,0,14.41,26.91,40.18,40.18,0,0,0,28.89,9.38c11.15-.7,22.55-5.33,30-13.81a67.47,67.47,0,0,0,5-6.46c1-1.44,2.19-3.21,4.19-2.24a2.57,2.57,0,0,0,3.43-.89,2.54,2.54,0,0,0-.9-3.43,7.79,7.79,0,0,0-8,.46c-2.34,1.67-3.67,4.63-5.42,6.86a35.65,35.65,0,0,1-11.7,9.86c-9.88,5.14-22,6.39-32.53,2.38-9.18-3.51-16.71-11.55-20.14-20.7a44.46,44.46,0,0,1-2.07-7.62c-.31-1.76-.76-3.91,1.29-4.77a6.29,6.29,0,0,1,2.29-.19h77.91c.66,0,1.33,0,2,0a7.91,7.91,0,0,0,5.36-2.16c2-1.94,2.45-4.53,2.17-7.19a57,57,0,0,0-11.89-30.2A53.14,53.14,0,0,0,711.09,167a61,61,0,0,0-30.76-2.19A50.38,50.38,0,0,0,654.48,178a58.56,58.56,0,0,0-16.34,27.95,59.43,59.43,0,0,0,1.17,32.73A58.46,58.46,0,0,0,657.08,265c7.88,6.45,17.41,9.92,27.46,11,11.48,1.28,23.43-.18,33.8-5.41a52.16,52.16,0,0,0,14-10.31,57.85,57.85,0,0,0,5.46-6.64c1.65-2.3,3.71-4.84,4-7.75a7.61,7.61,0,0,0-2.61-6.39,20.14,20.14,0,0,0-3.61-2.13C732.66,235.87,730.13,240.18,733,241.68Z"/><path class="cls-1" d="M723.08,212.26a7.7,7.7,0,0,0,7.55-8.53c-.29-2.32-1.54-4.62-2.61-6.67a37.07,37.07,0,0,0-3.88-5.9c-5.86-7.33-14.95-12.18-24.08-13.93a43,43,0,0,0-27.41,3.58,39.24,39.24,0,0,0-17.85,18.94c-1,2.2-1.8,4.25-1.23,6.7a7.69,7.69,0,0,0,3.53,4.75,8.62,8.62,0,0,0,4.56,1.06H701c7.22,0,14.47.16,21.7,0h.35c3.22,0,3.22-5,0-5h-46c-5.37,0-10.78.23-16.14,0a2.69,2.69,0,0,1-2.41-1.55c-.63-1.47.31-3,1-4.42a35.37,35.37,0,0,1,6.74-9.8,34.67,34.67,0,0,1,20.53-9.82,39.81,39.81,0,0,1,25.61,5.79,30.75,30.75,0,0,1,8.58,7.81,35,35,0,0,1,3.24,5.47c.67,1.39,1.81,3.27,1.29,4.71a2.63,2.63,0,0,1-2.49,1.81C719.87,207.37,719.86,212.37,723.08,212.26Z"/><path class="cls-1" d="M874,134.57V266.15a5.12,5.12,0,0,1-5.12,5.12h-2.73a5.13,5.13,0,0,1-5.13-5.12v0a5.13,5.13,0,0,0-8.43-3.91,51.6,51.6,0,0,1-10.14,6.62,50.34,50.34,0,0,1-22.53,5.08q-21.72,0-37.1-15.76t-15.38-38.32A51.83,51.83,0,0,1,783,182q15.51-15.71,37.34-15.71a48.3,48.3,0,0,1,22.8,5.36,47.07,47.07,0,0,1,9.44,6.57,5.11,5.11,0,0,0,8.48-3.87v-39.8a5.13,5.13,0,0,1,5.13-5.13h2.73A5.13,5.13,0,0,1,874,134.57ZM821.37,179a39.71,39.71,0,0,0-35.09,20.57,41.49,41.49,0,0,0,.05,41.34,40.42,40.42,0,0,0,14.89,15.36,38.91,38.91,0,0,0,20,5.49,41,41,0,0,0,20.48-5.45,38.1,38.1,0,0,0,14.89-14.74,42.07,42.07,0,0,0,5.22-21q0-17.76-11.7-29.69A38.71,38.71,0,0,0,821.37,179Z"/><path class="cls-1" d="M871.49,134.57v127.8c0,1.62.42,4.27-.66,5.52s-2.68.88-4.12.88-2.94-.59-3.19-2.29a13.41,13.41,0,0,0-.51-3.06,7.48,7.48,0,0,0-2.4-3.26,7.65,7.65,0,0,0-7.13-1.26A11.17,11.17,0,0,0,850.1,261a50.9,50.9,0,0,1-4.28,3,46.73,46.73,0,0,1-8.41,4.25,50.06,50.06,0,0,1-18.7,3.08A47.77,47.77,0,0,1,788.37,260a51.81,51.81,0,0,1-17.23-28.23c-2.34-10.79-1.53-22.75,3.07-32.86a53.31,53.31,0,0,1,22.69-24.35,49.92,49.92,0,0,1,33.68-4.68,44.21,44.21,0,0,1,16.84,7.47c2.38,1.73,4.36,4.22,7.42,4.63a7.63,7.63,0,0,0,6.78-2.53c1.68-2,1.89-4.21,1.89-6.64V136.58c0-1.55-.24-3.21,1.12-4.17,1.06-.75,2.74-.48,4-.47a2.69,2.69,0,0,1,2.85,2.63c.1,3.21,5.1,3.22,5,0a7.72,7.72,0,0,0-4.44-6.91,13,13,0,0,0-5.81-.72,7.79,7.79,0,0,0-7.73,7.94c0,5.25,0,10.49,0,15.74v20.2a38.42,38.42,0,0,1,0,3.87,2.46,2.46,0,0,1-1,1.77l-.68.38a2.11,2.11,0,0,1-1.37.17c.4.05-.47-.14-.44-.13.22.08-.21-.09-.21-.09a8,8,0,0,1-1.53-1.21,53.39,53.39,0,0,0-4.41-3.36c-10.94-7.46-24.53-9.65-37.48-7.73a54,54,0,0,0-30.76,16.34,55.21,55.21,0,0,0-15.22,31.48,58.35,58.35,0,0,0,6.1,34.74,57.08,57.08,0,0,0,25.31,24.31,55.37,55.37,0,0,0,36.57,3.44,51.57,51.57,0,0,0,18.3-8.73,22.59,22.59,0,0,1,3.13-2.35,2.44,2.44,0,0,1,2.2,0,2.74,2.74,0,0,1,1.31,1.34,5.58,5.58,0,0,1,.19,1,10.34,10.34,0,0,0,.26,2,7.65,7.65,0,0,0,6,5.52,17.46,17.46,0,0,0,5.4,0,7.71,7.71,0,0,0,6.29-7.67c.07-6.89,0-13.78,0-20.66V134.57C876.49,131.35,871.49,131.34,871.49,134.57Z"/><path class="cls-1" d="M821.37,176.51a42.72,42.72,0,0,0-25.81,8.6,44.62,44.62,0,0,0-15.26,22c-5.67,17.83,1.21,38.07,16.23,49.1,15.27,11.21,36.6,10.4,51.52-1,14.3-10.95,19.34-30.34,14.65-47.42-4.38-16-18.3-28.5-34.73-30.76a50.26,50.26,0,0,0-6.6-.47c-3.22,0-3.22,5,0,5a37.51,37.51,0,0,1,20.72,6,38.83,38.83,0,0,1,14,16.59A42.94,42.94,0,0,1,859,226.52a37.16,37.16,0,0,1-9.52,20.65c-11.34,12.09-30.31,15.7-45.09,8A39.45,39.45,0,0,1,794.22,193a37.48,37.48,0,0,1,21-11,39.12,39.12,0,0,1,6.12-.45C824.59,181.49,824.59,176.49,821.37,176.51Z"/><rect class="cls-2" x="601.68" y="28.24" width="256.98" height="70.59" rx="26.39" transform="translate(5.05 170.24) rotate(-13.34)"/><path class="cls-1" d="M649.31,108.94l2.4-45a3.09,3.09,0,0,1,2.57-3,2.76,2.76,0,0,1,3.34,1.25L680,102a3.14,3.14,0,0,1,0,3.27,2.87,2.87,0,0,1-1.8,1.37,3,3,0,0,1-3.6-1.5l-4.41-7.77-14.07,3.34-.56,9.57a1.88,1.88,0,0,1-.66,1.33,3.22,3.22,0,0,1-1.64,1,3.08,3.08,0,0,1-2.46-.39,3.18,3.18,0,0,1-1.41-2A3.78,3.78,0,0,1,649.31,108.94Zm5.9-61.4a3.36,3.36,0,0,1,1.28-.61,2.81,2.81,0,0,1,2.39.45,3.34,3.34,0,0,1,1.36,2,2.91,2.91,0,0,1-1.06,3.19l-9.93,7.8A3.5,3.5,0,0,1,648,61a2.82,2.82,0,0,1-2.39-.46,3.37,3.37,0,0,1-1.36-2,2.91,2.91,0,0,1,1.06-3.18Zm2.4,27.63L656.51,94l10.4-2.47Z"/><path class="cls-1" d="M650,108.87l1-19.51,1.31-24.48c.06-1.1,0-2.33,1-3.07a2.39,2.39,0,0,1,3.58.74c.12.2.24.42.36.64l4.52,8,14.06,25c1.12,2,2.32,4,3.38,6,.75,1.46.39,3.67-1.48,4-1.42.24-2.2-.78-2.82-1.87L671.7,98.5,670.87,97c-.14-.23-.59-.19-.79-.14L656,100.24c-.22.05-.6.25-.61.51l-.38,6.49c-.06,1-.07,2-.17,2.92a2.18,2.18,0,0,1-2.06,2c-1.83.13-2.78-1.65-2.75-3.24,0-.69-1.44-.44-1.46.14a3.78,3.78,0,0,0,4.81,4,3.91,3.91,0,0,0,2.83-2.35,5.28,5.28,0,0,0,.12-1.19l.52-8.82-.62.51,14.08-3.33-.79-.14,2.93,5.15c1,1.73,1.86,4.14,4.12,4.39,3.14.36,5.64-2.61,4.08-5.55-.35-.66-.74-1.3-1.1-2L665.63,74.93l-6.11-10.86c-.4-.71-.77-1.44-1.2-2.13-1.38-2.23-4.83-2-6.46-.15a5,5,0,0,0-.93,3.23l-.22,4.14L650,83.41c-.45,8.39-1,16.77-1.34,25.15l0,.45C648.55,109.7,650,109.46,650,108.87Z"/><path class="cls-1" d="M655.68,47.82c2.49-1.77,5.19,2.08,3.33,4.16a11.7,11.7,0,0,1-1.64,1.34l-6.72,5.28c-.61.48-1.21,1-1.84,1.45-2.13,1.56-4.58-1.07-3.85-3.3.29-.88,1.14-1.4,1.83-1.94l3.11-2.45,5.78-4.54c.77-.6-.42-1-.94-.56l-6,4.73-3.36,2.64c-1.12.87-2.08,1.84-2,3.38a3.82,3.82,0,0,0,5.56,3.1,13.57,13.57,0,0,0,2.35-1.71l7.5-5.89c1.19-.94,2.36-1.88,2.28-3.57a3.78,3.78,0,0,0-2.17-3.26,4.22,4.22,0,0,0-4.16.58C653.94,47.83,655.14,48.2,655.68,47.82Z"/><path class="cls-1" d="M656.88,75.24l-1,16.48-.14,2.37c0,.44.56.44.85.37L667,92c.32-.08.76-.38.55-.75L659.43,76.9l-1.15-2c-.29-.5-1.68,0-1.34.61l8.15,14.35,1.15,2,.55-.75-10.4,2.47.85.37,1-16.47.14-2.38C658.38,74.41,656.91,74.66,656.88,75.24Z"/><path class="cls-1" d="M694.69,99.22,684,54.32a.45.45,0,0,1,.32-.53l21.31-5a9.07,9.07,0,0,1,7.15,1.2,9.23,9.23,0,0,1,4.28,5.9l.76,3.22a10,10,0,0,1-1,7.41,9.12,9.12,0,0,1-5.93,4.37l-3.18.75a.43.43,0,0,0-.21.72l17.15,18.06a3.74,3.74,0,0,1,1,1.77,2.94,2.94,0,0,1-.45,2.36,3.18,3.18,0,0,1-2,1.41,3.1,3.1,0,0,1-3.17-1L700,73.64a.46.46,0,0,0-.42-.12l-3.78.9a.44.44,0,0,0-.32.52l5.41,22.8a3.37,3.37,0,0,1-.39,2.67,3.17,3.17,0,0,1-2,1.38,3,3,0,0,1-2.35-.36A3.48,3.48,0,0,1,694.69,99.22Zm-.4-30.93,15-3.55a3.48,3.48,0,0,0,2.21-1.5,3.06,3.06,0,0,0,.35-2.35l-.8-3.37a3.48,3.48,0,0,0-1.5-2.21,3.06,3.06,0,0,0-2.35-.35L692,58.55a.44.44,0,0,0-.33.53L693.77,68A.44.44,0,0,0,694.29,68.29Z"/><path class="cls-1" d="M695.42,99,692,84.79l-5.6-23.61-1.55-6.54a2.41,2.41,0,0,0-.12-.48s-.52.09,0,0c1.16-.25,2.32-.55,3.48-.82L700,50.51c2.82-.66,6.36-2,9.27-1.41A9.36,9.36,0,0,1,716.37,56a21.72,21.72,0,0,1,1,6.06,8.88,8.88,0,0,1-6.25,8.23c-.8.23-1.62.39-2.43.58-.58.14-1.51.22-1.89.75-.51.72.38,1.35.83,1.83l3,3.1,8.54,9c1.61,1.7,3.26,3.36,4.83,5.09a3.28,3.28,0,0,1,1,2.56,2.48,2.48,0,0,1-2.76,2.28,3.14,3.14,0,0,1-1.64-1.05c-.66-.68-1.31-1.38-2-2.07L703,75.78c-.69-.73-1.35-1.49-2.07-2.19s-1.48-.47-2.4-.25-3.8.38-3.73,1.81a14.23,14.23,0,0,0,.55,2.32c1.6,6.72,3.26,13.43,4.79,20.17a4.31,4.31,0,0,1,.11,1.75,2.28,2.28,0,0,1-3.15,1.8A3.05,3.05,0,0,1,695.42,99c-.16-.56-1.61-.18-1.45.39a3.94,3.94,0,0,0,6.43,1.93c1.42-1.18,1.47-2.82,1.08-4.47L699,86.51l-2.56-10.8a7.09,7.09,0,0,0-.22-.91c0-.12-.46.07-.08,0l1.31-.31,1.46-.35a3.27,3.27,0,0,0,.56-.13c.38-.17,0,.11-.14,0a3.69,3.69,0,0,0,.38.41l15.43,16.33,3.2,3.39A16.26,16.26,0,0,0,720,95.73a4.24,4.24,0,0,0,6.35-2.07c.54-1.72-.5-3-1.61-4.19l-15.3-16.12c-.33-.34-.64-.74-1-1.06-.08-.07-.13-.16-.22-.23s-.48,0-.12-.12a17.65,17.65,0,0,1,2.72-.64,11.81,11.81,0,0,0,3.38-1.36,10.08,10.08,0,0,0,4.67-8.42,23.69,23.69,0,0,0-1.06-5.87c-1.42-5.64-7.08-8.53-12.57-7.25-3.29.77-6.57,1.56-9.86,2.34l-10.51,2.49c-.74.18-1.63.38-1.55,1.33a11.77,11.77,0,0,0,.39,1.66l5.1,21.47,4.87,20.57.28,1.15C694.1,100,695.55,99.6,695.42,99Z"/><path class="cls-1" d="M694.4,68.7l11-2.6c1.33-.31,2.67-.59,4-.94A4.1,4.1,0,0,0,712.59,62a8.85,8.85,0,0,0-.51-3.21,7,7,0,0,0-1.22-3.22A3.9,3.9,0,0,0,707,54.55c-1.42.31-2.84.67-4.25,1l-7.13,1.69c-1.23.29-2.55.48-3.75.89-1,.36-1,1-.77,1.84l.81,3.45.87,3.65c.19.79.21,1.63,1.23,1.66.61,0,1.52-.88.54-.91-.29,0-1-4.07-1.1-4.41l-.72-3a4.58,4.58,0,0,0-.35-1.49s-.5.12-.09,0l.66-.16,2.23-.53,6.32-1.49,5.07-1.21a3.26,3.26,0,0,1,1.64-.14c1.49.37,1.93,1.78,2.24,3.09.5,2.12,1.59,5.08-1.4,5.86-1.27.34-2.56.61-3.84.91l-11,2.62C693.3,68.08,693.52,68.91,694.4,68.7Z"/><path class="cls-1" d="M758.48,42.78l-21.42,5.08a.33.33,0,0,0-.24.39l3.4,14.34a.33.33,0,0,0,.39.24l9-2.15a3.05,3.05,0,0,1,2.38.4A3,3,0,0,1,753.46,63a3.17,3.17,0,0,1-.36,2.45,3.37,3.37,0,0,1-2.16,1.47l-8.85,2.11a.32.32,0,0,0-.25.39l3.43,14.44a.33.33,0,0,0,.39.24L767.15,79a3,3,0,0,1,2.16.27A3.2,3.2,0,0,1,771,81.5,3,3,0,0,1,770.4,84a3.38,3.38,0,0,1-2,1.25L741,91.72a.32.32,0,0,1-.39-.24l-11.38-48a.32.32,0,0,1,.24-.39L757,36.56a3.15,3.15,0,0,1,2.44.41,3.11,3.11,0,0,1,1.45,2,3,3,0,0,1-.42,2.38A3.1,3.1,0,0,1,758.48,42.78Z"/><path class="cls-1" d="M758.35,42.3c-7,1.66-14.12,3.18-21.11,5-1.2.32-1.18,1-.93,2l1.49,6.27,1.48,6.28a2.54,2.54,0,0,0,.42,1.21c.45.43,1.14.19,1.67.06L748,61.59a15.67,15.67,0,0,1,1.89-.44c3.28-.39,3.91,4.42.92,5.31-1.72.51-3.52.83-5.27,1.25l-3,.71c-.61.15-1.37.31-1.42,1.07a4.43,4.43,0,0,0,.23,1.08l.67,2.8,1.67,7.06.64,2.7a3.13,3.13,0,0,0,.36,1.17c.59.74,2.29,0,3-.15L761.13,81l5.29-1.26c.32-.07.65-.18,1-.22,3.24-.36,3.87,4.34.9,5.23-2.71.82-5.55,1.32-8.3,2L745.88,90l-4.39,1a3.23,3.23,0,0,0-.47.11c-.54.3.73-.52.29.1,0-.06-.1-.37-.11-.43a19.56,19.56,0,0,0-.66-2.82l-1.19-5-6.71-28.31-2.34-9.83c0-.21-.18-1.5-.38-1.61.11.06-.55.18-.21.26a1.71,1.71,0,0,0,.47-.12l1.66-.39,24.61-5.84c.22-.05.45-.13.67-.16,3.19-.42,4.36,4.33,1.23,5.25-.89.25-.64,1.23.26,1a4,4,0,0,0,3.1-3.55A3.7,3.7,0,0,0,758.59,36a9.22,9.22,0,0,0-3.52.49l-13.44,3.19-11.75,2.79c-.75.18-1.48.43-1.37,1.35a21.27,21.27,0,0,0,.59,2.48l6.35,26.8,3.16,13.29.94,4c.13.53.17,1.44.69,1.75s2.2-.24,2.85-.39L749,90.35l14.76-3.5c2.8-.67,8.45-1.09,8-5.17-.27-2.7-2.94-3.57-5.23-3l-5,1.19-14.07,3.34a8.94,8.94,0,0,0-1.7.4c-.38.19.09,0,0,.08-.45.65.25,0,.23,0s0-.06,0-.07-.07-.23-.07-.3a14.48,14.48,0,0,0-.55-2.32l-.84-3.54-1.62-6.83a5.84,5.84,0,0,0-.22-.94c0-.06,0-.24-.07-.28s.06.2-.2,0c.4.28-.45,0,0,.11a1.25,1.25,0,0,0,.37-.09l1.41-.33c2.21-.53,4.44-1,6.65-1.58A4.8,4.8,0,0,0,753.51,66a3.63,3.63,0,0,0-.23-4.74c-1.78-1.78-4.08-.94-6.17-.44l-3.77.89a11.34,11.34,0,0,0-2.66.63c-.38.21.2.09.24,0s-.13-.58-.16-.69l-.64-2.7-1.78-7.5-.63-2.65c0-.1-.05-.54-.14-.6s-.41.08-.29.16,1.17-.28,1.34-.32l2.62-.62L755.57,44l3-.72C759.51,43.06,759.24,42.08,758.35,42.3Z"/><path class="cls-1" d="M785.08,76.74l2.4-45a3.07,3.07,0,0,1,2.56-3A2.75,2.75,0,0,1,793.39,30l22.38,39.79a2.87,2.87,0,0,1,.36.88,3,3,0,0,1-.36,2.38,2.8,2.8,0,0,1-1.8,1.38,3,3,0,0,1-3.6-1.51L806,65.14l-14.08,3.34-.56,9.57a1.89,1.89,0,0,1-.65,1.32,3.26,3.26,0,0,1-1.64.95,3,3,0,0,1-2.46-.38,3.17,3.17,0,0,1-1.41-2A3.8,3.8,0,0,1,785.08,76.74ZM793.38,43l-1.1,18.84,10.4-2.46Z"/><path class="cls-1" d="M785.8,76.54l1-19.39,1.31-24.52a4.22,4.22,0,0,1,.92-3.11c1.69-1.59,3.22,0,4,1.41l4.6,8.17,14,24.89c1.11,2,2.26,3.92,3.33,5.91.72,1.37.66,3.17-.81,4s-2.67-.42-3.37-1.65l-3.32-5.84-.83-1.47c-.13-.23-.6-.11-.8-.07l-14.07,3.34c-.22.05-.64.19-.65.46l-.38,6.48c-.06,1-.07,2-.17,2.92a2.23,2.23,0,0,1-3.08,1.75,3.31,3.31,0,0,1-1.74-3.28c0-.28-1.43-.07-1.45.39-.06,2.91,2.49,4.42,5.13,3.55A3.76,3.76,0,0,0,792,78.24a6.25,6.25,0,0,0,.08-1.14l.52-8.82-.66.46L806,65.4l-.8-.07,2.93,5.16c.94,1.66,1.81,4.08,4,4.34,3,.37,5.93-2.28,4.34-5.29-.36-.67-.75-1.33-1.13-2l-14-24.91-6.05-10.76c-.39-.68-.74-1.38-1.15-2.05-1.35-2.17-4.68-1.91-6.39-.23a4.54,4.54,0,0,0-1,3.27l-.22,4-.76,14.3L784.89,67c-.17,3.16-.47,6.33-.51,9.49,0,.16,0,.32,0,.48S785.78,77,785.8,76.54Z"/><path class="cls-1" d="M792.65,43.16l-1,16.48L791.55,62c0,.24.74.09.8.07l10.4-2.47c.1,0,.77-.25.65-.46L795.25,44.8l-1.15-2c-.22-.39-1.6.12-1.45.39l8.15,14.35,1.15,2,.66-.46-10.4,2.47.79.07,1-16.48.14-2.37C794.12,42.5,792.68,42.69,792.65,43.16Z"/></g></g></svg>