<?xml version="1.0" encoding="utf-8"?>
<!-- Generator: Adobe Illustrator 25.2.0, SVG Export Plug-In . SVG Version: 6.00 Build 0)  -->
<svg version="1.1" id="Camada_1" xmlns="http://www.w3.org/2000/svg" xmlns:xlink="http://www.w3.org/1999/xlink" x="0px" y="0px"
	 viewBox="0 0 595.3 841.9" style="enable-background:new 0 0 595.3 841.9;" xml:space="preserve">
<style type="text/css">
	{fill:#fff} 
</style>
<g>
	<path class="st0" d="M588.7,416.8c-9.7-21-25.9-35.9-45.9-47c-9.3-5.2-16.6-12.3-21.2-21.9c-2.8-5.8-5.2-11.9-7.1-18.2
		c-10.8-37-27.8-70.7-52.1-100.5c-9.3-11.5-18.8-22.9-31-31.5c-27-19-57.4-27.3-93.3-27.7c-7.3,0.6-17.7,1.2-28.1,2.4
		c-36.9,4.1-68.2,19.4-93.2,47.1c-6.3,6.9-12.9,13.5-19.8,19.9c-9.8,9.1-21.4,14.2-34.9,15.2c-11.9,0.8-23.9,1.6-35.8,2.7
		c-16.3,1.6-32.1,5.4-46.8,13.1c-27.9,14.5-41.6,37.6-41.4,68.8c0.1,15.7,3.2,31,8.9,45.5c5.6,14.3,12.3,28.3,18.5,42.3
		c1.8,4.1,1.5,5.5-1.7,8.2c-10.8,9.1-21.8,18-32.2,27.6c-10.8,10-20.4,21.2-26.6,34.7c-7.7,16.6-7.4,32.5,5.4,46.7
		c3.3,3.7,7.2,7,11.3,9.8c13.2,9.2,28.2,14.8,43.5,19.6c20.3,6.4,41.2,9.8,62.1,12.9c7.6,1.1,10,3.3,11.8,10.9
		c3.5,15,10,28.6,19,41.1c6.4,9,14.7,15.3,25.6,17.2c8.5,1.5,17.2,2.1,25.9,2.5c14,0.7,28,0.3,41.6-4.1c4.7-1.5,10.2-1.8,15.1-1
		c8.3,1.4,16.6,3.4,24.5,6.2c20,7.3,40.3,12.3,61.6,12.5c34.4,0.4,66.2-9.5,96.3-25.5c22.5-12,41.6-28,55.9-49.3
		c7.9-11.8,14.8-24,17.3-38.3c0.9-5.2,2.7-10.3,4.6-15.2c5.2-13.5,13.9-23.7,27.7-29c2.8-1.1,5.5-2.7,8-4.4
		C592.1,490.9,603.8,449.6,588.7,416.8z M243.4,240.5c14.5-21.3,33.5-36.7,58.9-43c20.2-5,39.5-0.8,57.8,8.2
		c24.4,12,43.4,30.2,58.9,52.2c13.2,18.7,23.4,39.1,33,59.8c0.2,0.3,0.2,0.7,0.5,1.4c-70.7-28.4-144.5-43.7-218.8-58.5
		C235.9,253.4,239.2,246.7,243.4,240.5z M197.5,352.2c4.5-13.9,9.1-27.8,13.7-41.8c1.7-5.2,3.3-10.3,5-15.5
		c2.1-6.4,5.3-8.2,11.9-6.6c38.2,8.9,76.4,17.7,113.6,30.1c8.2,2.7,16.4,5.7,24.6,8.7c1.1,0.4,2,1.3,2.9,1.9c-0.2,0.3-0.3,0.7-0.4,1
		c-9.9,0.9-19.9,1.9-29.8,2.8c-41,3.8-82,8.1-121.8,19.6c-5,1.4-9.9,3.2-14.9,4.6c-1.6,0.4-3.3,0.3-4.9,0.5
		C197.4,355.7,197,353.8,197.5,352.2z M93.4,541.2c-10.4-2.6-20.7-5.8-30.8-9.5c-8.6-3.2-15.2-8.8-17.2-18.5c-1.2-5.9,0-11.7,2-17.3
		c4.5-12.1,12-22.4,20.3-32c4.7-5.5,9.9-10.6,15.3-16.4c21.3,31.6,39.2,64.1,48.8,101.8C118.4,546.5,105.8,544.3,93.4,541.2z
		 M147.3,490.2c-1.1-2-1.8-3.1-2.5-4.3c-10-17.5-20-35-30-52.6c-2.7-4.7-2.5-5.6,2.1-8.7c7-4.8,13.9-9.7,21-14.3
		c1.2-0.8,3.3-1.2,4.4-0.7c1.1,0.5,2,2.5,2.1,3.9c1.1,25,2.1,50.1,3.1,75.1C147.5,488.8,147.4,489,147.3,490.2z M157.2,345.3
		c-2.2,7.1-3.9,14.4-6.1,21.6c-2.3,7.3-6.3,13.3-12.8,17.9c-6.6,4.7-12.7,10.3-19,15.3c-6.6,5.3-13.7,4.2-18-2.8
		c-9.5-15.5-16.9-31.8-19.9-49.9c-3.2-19.5-0.1-37.5,13.8-52.5c10.1-10.9,22.8-16.4,37.4-17.5c5.8-0.4,11.7-0.6,20.2-1
		c4.2,0.4,11,1.1,17.8,1.9c1.8,0.2,3.6,1,5.2,1.8c3.8,1.9,4.7,4.3,2.9,8.3C170.2,306.8,163.1,325.8,157.2,345.3z M180.3,613.8
		c-2.7-4.4-2.7-8.9,0.1-13.2c1.6-2.5,3.3-4.9,5-7.2c2-2.7,4-3.2,6.7-1.2c2.9,2.1,5.4,4.7,8.2,6.9c13.1,10.7,26.2,21.5,39.3,32.1
		c1.8,1.5,4,2.6,6.4,4.2C218.8,643.2,195.2,638.6,180.3,613.8z M310.9,607.7c-12.4-4.8-24.8-9.9-37.1-14.9c-0.5-0.2-0.9-0.5-1.4-0.7
		c58.7-8.3,117.5-15.2,175-29.9c-0.4,0.3-0.7,0.6-1.1,0.8c-32.2,13.4-64.5,27-96.8,40.2c-6.1,2.5-12.7,3.8-19,5.7
		C323.7,611,317.2,610.2,310.9,607.7z M437.7,633.1c-11.9,9.4-25.5,14.1-40.6,15c-21.5,1.2-41.4-4.8-61.7-13.5
		c47.8-18.7,94.9-37.1,138.7-64.6C467.3,594.8,457.9,617.1,437.7,633.1z M485.7,524.7c-0.7,7.6-4.9,12.3-12.4,14.4
		c-27,7.7-54.4,13.2-82.3,16.9c-19.1,2.5-38.1,5.3-57.2,7.4c-28,3-56.2,3.8-84.3,0.4c-31.2-3.8-58.2-29.5-64.7-61.2
		c-2-9.8-1.6-19.7-1.4-29.5c0.1-5.8,0-11.5,0-16.9c1.1-18.8,2.3-37.3,3.4-55.7c0.6-10.7,6-17.3,16.3-20.6
		c27.8-8.7,56.2-15.1,85-19.7c23.9-3.9,47.8-6.6,72-6.2c34.7,0.6,68.4,6.9,101.1,18.8c7.9,2.9,12.6,8.5,14.8,16.5
		c4.8,16.7,7.7,33.7,8.9,50.9c1.2,18.2,2.4,36.4,2.7,54.7C487.8,504.8,486.5,514.8,485.7,524.7z M551.7,475.3
		c-7.3,7.7-16.3,13.2-26.4,18.3c-0.5-35.7-0.9-70.7-1.4-106.3c6.9,2.7,12.7,6.2,17.9,10.6c12.1,10.4,19.6,23.5,22.2,39.1
		C566.3,451.8,561.9,464.6,551.7,475.3z"/>
</g>
</svg>
