<svg xmlns="http://www.w3.org/2000/svg" viewBox="0 0 263.69 196.61"><defs><style>.cls-1{fill:#1ea9ad;}</style></defs><g id="Camada_2" data-name="Camada 2"><g id="Camada_1-2" data-name="Camada 1"><path class="cls-1" d="M259.35,19.09a15.18,15.18,0,0,1-4.28,9.6Q199.23,89.86,143.51,151.15c-10.74,11.8-35.6,41.55-39.41,42.67-6.59,1.93-12.28.78-17.07-4.3q-21-22.32-42.1-44.61C33,132.3,21.1,119.74,9.29,107.06c-7.46-8-6.35-18.72,2.35-24.55C18.39,78,26.17,79,32.2,85.37q18.19,19.34,36.24,38.82c8.75,9.39,17.55,18.74,26.21,28.22,1.79,2,2.74,2,4.56,0q40.49-44.55,81.13-89Q206.05,35.26,231.79,7.1a17.24,17.24,0,0,1,18.62-4C255.84,5.37,259.33,11.12,259.35,19.09Z"/><path class="cls-1" d="M255,20.26c-.24,6.1-5.47,10.42-9.27,14.58L231.94,50q-14,15.39-28.06,30.79-28,30.71-55.93,61.43c-12,13.22-23.61,26.82-35.61,40-2.31,2.53-4.63,5.06-7,7.49-.88.89-1.78,1.77-2.71,2.6l-.54.47c-.62.54.24-.16,0,0-.39.27-1.52.91-.11.18-.64.33,1-.41.65-.27,1.34-.5.62-.24.3-.13-1.2.41.85-.1-.38.09l-.76.12c.89-.14-.31,0-.41,0l-.74,0c.6,0-.55,0-.68-.05a12.57,12.57,0,0,1-6.15-2.41c-2.57-1.85-4.62-4.43-6.78-6.72L79.82,176Q51.5,146,23.18,116l-7.11-7.59a33.47,33.47,0,0,1-5.4-6.64,14.69,14.69,0,0,1-.78-13,14.53,14.53,0,0,1,3.9-5.14,18.58,18.58,0,0,1,1.54-1.09,10.82,10.82,0,0,1,1.21-.66c-.65.34-.14,0,0,0s1.24-.2.24-.11c.81-.07.06,0-.12,0l.7-.13-.2,0c.29,0,.58-.05.87-.05-.62,0,.13,0,.29,0a7.57,7.57,0,0,1,1.33.16A13.21,13.21,0,0,1,23.06,83a26.46,26.46,0,0,1,6.75,5.73q28.16,30,56.08,60.14c1.11,1.21,2.23,2.42,3.34,3.64s2,2.53,3.52,3c2,.67,4.44.09,6.32-.62a12.2,12.2,0,0,0,4.76-3.49l13.73-15.09q13.89-15.25,27.82-30.51,27.93-30.63,55.88-61.23,14-15.28,27.91-30.56c2.27-2.47,4.48-5,6.82-7.43a10.74,10.74,0,0,1,2.47-1.95c-.64.38,1.48-.67.44-.24.33-.14.67-.25,1-.38-1,.4.06,0,.25,0,1.18-.31-.95.15.25,0,.16,0,.8-.11,0,0l.9-.07c.14,0,.92,0,.33,0a12.53,12.53,0,0,1,8.91,3.68c3.3,3.32,4.39,8.22,4.44,12.76,0,1.64,8.72.31,8.69-2.33-.05-5.76-2-11.89-7.07-15.19-6-3.93-14.44-3.17-20.8-.59a24.69,24.69,0,0,0-9.17,6.49L218.07,18,200.92,36.8q-17.14,18.77-34.27,37.54l-34.21,37.49q-17.1,18.74-34.18,37.51l-2.17,2.4c-.33.36-.66.73-1,1.08-1.24,1.29-.15-.22,2.71-.68l2-.13c.51,0,.19.07-.22-.26a10.21,10.21,0,0,1-1-1c-.84-.9-1.67-1.82-2.51-2.73q-2.5-2.73-5-5.44-5-5.43-10.1-10.84Q70.8,120.84,60.68,110T40.36,88.2c-3-3.18-5.79-6.7-9.8-8.6a19.64,19.64,0,0,0-12.33-1.34C10.45,79.81,2,84.92.32,93.27A15.87,15.87,0,0,0,1.43,103c1.76,3.89,5,6.84,7.83,9.91,13.6,14.54,27.32,29,41,43.48l20.54,21.75,10.27,10.89c2.85,3,5.65,5.73,9.77,6.88,4.36,1.21,9.18.68,13.47-.56a14.61,14.61,0,0,0,5.71-3.14,102.39,102.39,0,0,0,9-9.16c8.21-9,16.08-18.21,24.12-27.32,11.61-13.15,23.59-26,35.4-39q20.15-22.14,40.31-44.27L239,50.37c6.72-7.36,13.56-14.64,20.16-22.1a16.55,16.55,0,0,0,4.52-10.34C263.75,16.41,255.1,17.56,255,20.26Z"/></g></g></svg>