<svg xmlns="http://www.w3.org/2000/svg" viewBox="0 0 239.99 148.08"><defs><style>.cls-1{fill:#1ea9ad;}</style></defs><g id="Camada_2" data-name="Camada 2"><g id="Camada_1-2" data-name="Camada 1"><path class="cls-1" d="M237.3,67.93C219.5,46.23,198.87,27.86,174,14.62,146.58,0,117.9-4.72,87.91,5.34,52.56,17.2,25.38,40.41,2.09,68.72c-3.31,4-2.4,7.89.72,11.71a219.37,219.37,0,0,0,48,44c20.94,14,43.51,23.32,69.14,23.61a94.17,94.17,0,0,0,29.48-4.43c36.67-11.6,64.63-35.29,88.58-64.42C241.16,75.4,240.29,71.57,237.3,67.93Zm-17.55,8.26C198.83,99,175.59,118.44,145.47,128c-24.77,7.89-48.23,3.58-70.72-8.1C54,109.15,36.51,94.16,20.92,76.86c-1.33-1.47-2.79-2.61-.7-4.89C41.61,48.67,65.39,28.85,96.4,19.59a86.53,86.53,0,0,1,24.25-3.51c16.66.32,32.59,5.48,47.64,13.78,19.44,10.73,36,25,50.76,41.43C220.37,72.76,221.84,73.91,219.75,76.19Z"/><path class="cls-1" d="M120.35,38.79a35.29,35.29,0,1,0,34.93,35.29A35.07,35.07,0,0,0,120.35,38.79Zm-.45,54.5a19.22,19.22,0,1,1,19.29-19.14A18.86,18.86,0,0,1,119.9,93.29Z"/></g></g></svg>